<svg width="322" height="195" viewBox="0 0 322 195" fill="none" xmlns="http://www.w3.org/2000/svg">
<path d="M320.879 13.6133C319.286 19.2849 313.397 22.5915 307.726 20.9987C302.054 19.406 298.747 13.517 300.34 7.84538C301.933 2.17374 307.822 -1.13283 313.494 0.459945C319.165 2.05272 322.472 7.94168 320.879 13.6133ZM286.212 117.478L284.527 116.401L286.212 117.478ZM199.632 184.518L200.252 186.419L199.632 184.518ZM90.1753 181.415L89.4485 183.278L90.1753 181.415ZM5.60703 109.036C5.90568 107.973 7.00984 107.353 8.07329 107.652L25.4029 112.518C26.4663 112.817 27.0863 113.921 26.7877 114.985C26.489 116.048 25.3849 116.668 24.3214 116.369L8.91731 112.043L4.59136 127.448C4.29272 128.511 3.18855 129.131 2.12511 128.832C1.06169 128.534 0.441694 127.43 0.740338 126.366L5.60703 109.036ZM312.595 10.4921C317.111 48.2852 308.383 86.4749 287.898 118.554L284.527 116.401C304.513 85.102 313.03 47.8409 308.624 10.9666L312.595 10.4921ZM287.898 118.554C267.413 150.633 236.438 174.617 200.252 186.419L199.012 182.616C234.318 171.101 264.54 147.701 284.527 116.401L287.898 118.554ZM200.252 186.419C164.066 198.221 124.908 197.111 89.4485 183.278L90.9022 179.551C125.499 193.048 163.706 194.131 199.012 182.616L200.252 186.419ZM89.4485 183.278C53.9892 169.445 24.4234 143.745 5.78864 110.556L9.27645 108.598C27.4581 140.979 56.3051 166.055 90.9022 179.551L89.4485 183.278Z" fill="#717171"/>
</svg>
