<svg width="299" height="312" viewBox="0 0 299 312" fill="none" xmlns="http://www.w3.org/2000/svg">
<rect x="40" y="52" width="169" height="169" fill="#F0EDED"/>
<circle cx="104" cy="86" r="5" fill="#333333"/>
<circle cx="104" cy="106" r="5" fill="#333333"/>
<circle cx="104" cy="126" r="5" fill="#333333"/>
<circle cx="104" cy="146" r="5" fill="#333333"/>
<circle cx="104" cy="166" r="5" fill="#333333"/>
<circle cx="104" cy="186" r="5" fill="#333333"/>
<circle cx="104" cy="206" r="5" fill="#333333"/>
<circle cx="104" cy="226" r="5" fill="#333333"/>
<circle cx="104" cy="246" r="5" fill="#333333"/>
<circle cx="125" cy="86" r="5" fill="#333333"/>
<circle cx="125" cy="106" r="5" fill="#333333"/>
<circle cx="125" cy="126" r="5" fill="#333333"/>
<circle cx="125" cy="146" r="5" fill="#333333"/>
<circle cx="125" cy="166" r="5" fill="#333333"/>
<circle cx="125" cy="186" r="5" fill="#333333"/>
<circle cx="125" cy="206" r="5" fill="#333333"/>
<circle cx="125" cy="226" r="5" fill="#333333"/>
<circle cx="125" cy="246" r="5" fill="#333333"/>
<circle cx="146" cy="86" r="5" fill="#333333"/>
<circle cx="146" cy="106" r="5" fill="#333333"/>
<circle cx="146" cy="126" r="5" fill="#333333"/>
<circle cx="146" cy="146" r="5" fill="#333333"/>
<circle cx="146" cy="166" r="5" fill="#333333"/>
<circle cx="146" cy="186" r="5" fill="#333333"/>
<circle cx="146" cy="206" r="5" fill="#333333"/>
<circle cx="146" cy="226" r="5" fill="#333333"/>
<circle cx="146" cy="246" r="5" fill="#333333"/>
<circle cx="167" cy="86" r="5" fill="#333333"/>
<circle cx="167" cy="106" r="5" fill="#333333"/>
<circle cx="167" cy="126" r="5" fill="#333333"/>
<circle cx="167" cy="146" r="5" fill="#333333"/>
<circle cx="167" cy="166" r="5" fill="#333333"/>
<circle cx="167" cy="186" r="5" fill="#333333"/>
<circle cx="167" cy="206" r="5" fill="#333333"/>
<circle cx="167" cy="226" r="5" fill="#333333"/>
<circle cx="167" cy="246" r="5" fill="#333333"/>
<circle cx="188" cy="86" r="5" fill="#333333"/>
<circle cx="188" cy="106" r="5" fill="#333333"/>
<circle cx="188" cy="126" r="5" fill="#333333"/>
<circle cx="188" cy="146" r="5" fill="#333333"/>
<circle cx="188" cy="166" r="5" fill="#333333"/>
<circle cx="188" cy="186" r="5" fill="#333333"/>
<circle cx="188" cy="206" r="5" fill="#333333"/>
<circle cx="188" cy="226" r="5" fill="#333333"/>
<circle cx="188" cy="246" r="5" fill="#333333"/>
<circle cx="209" cy="86" r="5" fill="#333333"/>
<circle cx="209" cy="106" r="5" fill="#333333"/>
<circle cx="209" cy="126" r="5" fill="#333333"/>
<circle cx="209" cy="146" r="5" fill="#333333"/>
<circle cx="209" cy="166" r="5" fill="#333333"/>
<circle cx="209" cy="186" r="5" fill="#333333"/>
<circle cx="209" cy="206" r="5" fill="#333333"/>
<circle cx="209" cy="226" r="5" fill="#333333"/>
<circle cx="209" cy="246" r="5" fill="#333333"/>
<circle cx="230" cy="86" r="5" fill="#333333"/>
<circle cx="230" cy="106" r="5" fill="#333333"/>
<circle cx="230" cy="126" r="5" fill="#333333"/>
<circle cx="230" cy="146" r="5" fill="#333333"/>
<circle cx="230" cy="166" r="5" fill="#333333"/>
<circle cx="230" cy="186" r="5" fill="#333333"/>
<circle cx="230" cy="206" r="5" fill="#333333"/>
<circle cx="230" cy="226" r="5" fill="#333333"/>
<circle cx="230" cy="246" r="5" fill="#333333"/>
<circle cx="251" cy="86" r="5" fill="#333333"/>
<circle cx="251" cy="106" r="5" fill="#333333"/>
<circle cx="251" cy="126" r="5" fill="#333333"/>
<circle cx="251" cy="146" r="5" fill="#333333"/>
<circle cx="251" cy="166" r="5" fill="#333333"/>
<circle cx="251" cy="186" r="5" fill="#333333"/>
<circle cx="251" cy="206" r="5" fill="#333333"/>
<circle cx="251" cy="226" r="5" fill="#333333"/>
<circle cx="251" cy="246" r="5" fill="#333333"/>
</svg>
