<svg width="80" height="28" viewBox="0 0 80 28" fill="none" xmlns="http://www.w3.org/2000/svg">
<circle cx="8.5" cy="13.5" r="2.5" fill="#515151"/>
<circle cx="8.5" cy="5.5" r="2.5" fill="#515151"/>
<circle cx="8.5" cy="21.5" r="2.5" fill="#515151"/>
<circle cx="17.5" cy="5.5" r="2.5" fill="#515151"/>
<circle cx="17.5" cy="13.5" r="2.5" fill="#515151"/>
<circle cx="17.5" cy="21.5" r="2.5" fill="#515151"/>
<circle cx="26.5" cy="5.5" r="2.5" fill="#515151"/>
<circle cx="26.5" cy="13.5" r="2.5" fill="#515151"/>
<circle cx="26.5" cy="21.5" r="2.5" fill="#515151"/>
<circle cx="35.5" cy="5.5" r="2.5" fill="#515151"/>
<circle cx="35.5" cy="13.5" r="2.5" fill="#515151"/>
<circle cx="35.5" cy="21.5" r="2.5" fill="#515151"/>
<circle cx="44.5" cy="5.5" r="2.5" fill="#515151"/>
<circle cx="44.5" cy="13.5" r="2.5" fill="#515151"/>
<circle cx="44.5" cy="21.5" r="2.5" fill="#515151"/>
<circle cx="53.5" cy="5.5" r="2.5" fill="#515151"/>
<circle cx="53.5" cy="13.5" r="2.5" fill="#515151"/>
<circle cx="53.5" cy="21.5" r="2.5" fill="#515151"/>
<circle cx="62.5" cy="5.5" r="2.5" fill="#515151"/>
<circle cx="62.5" cy="13.5" r="2.5" fill="#515151"/>
<circle cx="62.5" cy="21.5" r="2.5" fill="#515151"/>
<circle cx="71.5" cy="5.5" r="2.5" fill="#515151"/>
<circle cx="71.5" cy="13.5" r="2.5" fill="#515151"/>
<circle cx="71.5" cy="21.5" r="2.5" fill="#515151"/>
</svg>
