<svg width="437" height="415" viewBox="0 0 437 415" fill="none" xmlns="http://www.w3.org/2000/svg">
<g clip-path="url(#clip0_243_631)">
<path d="M265.662 98.4734H263.386V36.1C263.386 26.5257 259.585 17.3435 252.82 10.5735C246.054 3.8034 236.878 1.20809e-05 227.31 1.14963e-10H95.2502C90.5126 -1.19635e-05 85.8214 0.93373 81.4444 2.74791C77.0674 4.5621 73.0904 7.2212 69.7404 10.5734C66.3904 13.9256 63.733 17.9052 61.92 22.285C60.107 26.6649 59.1738 31.3592 59.1738 36.0999V378.285C59.1738 383.026 60.107 387.72 61.92 392.1C63.733 396.48 66.3903 400.459 69.7403 403.812C73.0903 407.164 77.0673 409.823 81.4443 411.637C85.8213 413.451 90.5125 414.385 95.2501 414.385H227.31C236.878 414.385 246.054 410.582 252.82 403.812C259.585 397.042 263.386 387.86 263.386 378.285V142.872H265.662L265.662 98.4734Z" fill="#E6E6E6"/>
<path d="M228.766 9.39209H211.528C212.321 11.3369 212.623 13.447 212.409 15.5364C212.195 17.6258 211.47 19.6304 210.3 21.3737C209.129 23.1169 207.548 24.5453 205.695 25.533C203.843 26.5207 201.776 27.0374 199.677 27.0376H124.022C121.923 27.0374 119.856 26.5208 118.004 25.5331C116.151 24.5454 114.57 23.1169 113.399 21.3737C112.228 19.6304 111.504 17.6258 111.29 15.5364C111.075 13.447 111.378 11.3369 112.171 9.39209H96.0703C88.925 9.39209 82.0724 12.2324 77.0199 17.2882C71.9674 22.344 69.1289 29.2011 69.1289 36.3511V378.034C69.1289 381.574 69.8258 385.08 71.1797 388.351C72.5336 391.622 74.5181 394.594 77.0199 397.097C79.5216 399.6 82.4916 401.586 85.7603 402.941C89.029 404.296 92.5323 404.993 96.0703 404.993H228.766C232.304 404.993 235.807 404.296 239.076 402.941C242.345 401.586 245.315 399.6 247.816 397.097C250.318 394.594 252.303 391.622 253.657 388.351C255.011 385.08 255.707 381.574 255.707 378.034V36.3511C255.707 32.8108 255.011 29.3052 253.657 26.0343C252.303 22.7635 250.318 19.7916 247.816 17.2882C245.315 14.7848 242.345 12.799 239.076 11.4442C235.807 10.0894 232.304 9.39208 228.766 9.39209Z" fill="white"/>
<path d="M241.672 165.954H170.135C169.345 165.953 168.587 165.639 168.028 165.079C167.47 164.52 167.155 163.762 167.154 162.971V123.018C167.155 122.228 167.47 121.469 168.028 120.91C168.587 120.351 169.345 120.037 170.135 120.036H241.672C242.462 120.037 243.22 120.351 243.779 120.91C244.338 121.469 244.652 122.228 244.653 123.018V162.971C244.652 163.762 244.338 164.52 243.779 165.079C243.22 165.639 242.462 165.953 241.672 165.954ZM170.135 121.229C169.661 121.229 169.206 121.418 168.871 121.753C168.536 122.089 168.347 122.544 168.347 123.018V162.971C168.347 163.446 168.536 163.901 168.871 164.236C169.206 164.572 169.661 164.76 170.135 164.761H241.672C242.146 164.76 242.601 164.572 242.936 164.236C243.271 163.901 243.46 163.446 243.461 162.971V123.018C243.46 122.544 243.271 122.089 242.936 121.753C242.601 121.418 242.146 121.229 241.672 121.229L170.135 121.229Z" fill="#E6E6E6"/>
<path d="M153.444 358.634H81.9065C81.1162 358.633 80.3586 358.318 79.7998 357.759C79.241 357.2 78.9267 356.442 78.9258 355.651V281.099C78.9267 280.309 79.2411 279.551 79.7999 278.991C80.3586 278.432 81.1162 278.118 81.9065 278.117H153.444C154.234 278.118 154.991 278.432 155.55 278.991C156.109 279.551 156.423 280.309 156.424 281.099V355.651C156.423 356.442 156.109 357.2 155.55 357.759C154.991 358.318 154.234 358.633 153.444 358.634ZM81.9065 279.31C81.4323 279.31 80.9777 279.499 80.6424 279.834C80.3071 280.17 80.1186 280.625 80.118 281.099V355.651C80.1186 356.126 80.3071 356.581 80.6424 356.916C80.9777 357.252 81.4323 357.44 81.9065 357.441H153.444C153.918 357.44 154.372 357.252 154.708 356.916C155.043 356.581 155.232 356.126 155.232 355.651V281.099C155.232 280.625 155.043 280.17 154.708 279.834C154.372 279.499 153.918 279.31 153.444 279.31H81.9065Z" fill="#E6E6E6"/>
<path d="M241.672 358.634H170.135C169.345 358.633 168.587 358.318 168.028 357.759C167.47 357.2 167.155 356.442 167.154 355.651V281.099C167.155 280.309 167.47 279.551 168.028 278.991C168.587 278.432 169.345 278.118 170.135 278.117H241.672C242.462 278.118 243.22 278.432 243.779 278.991C244.338 279.55 244.652 280.309 244.653 281.099V355.651C244.652 356.442 244.338 357.2 243.779 357.759C243.22 358.318 242.462 358.633 241.672 358.634ZM170.135 279.31C169.661 279.31 169.206 279.499 168.871 279.834C168.536 280.17 168.347 280.625 168.347 281.099V355.651C168.347 356.126 168.536 356.581 168.871 356.916C169.206 357.252 169.661 357.44 170.135 357.441H241.672C242.146 357.44 242.601 357.252 242.936 356.916C243.271 356.581 243.46 356.126 243.461 355.651V281.099C243.46 280.625 243.271 280.17 242.936 279.834C242.601 279.499 242.146 279.31 241.672 279.31H170.135Z" fill="#E6E6E6"/>
<path d="M105.724 220.423C112.43 220.423 117.866 214.983 117.866 208.273C117.866 201.563 112.43 196.124 105.724 196.124C99.0181 196.124 93.582 201.563 93.582 208.273C93.582 214.983 99.0181 220.423 105.724 220.423Z" fill="#955540"/>
<path d="M133.766 200.173C133.229 200.173 132.714 200.387 132.335 200.766C131.955 201.146 131.742 201.661 131.742 202.198C131.742 202.735 131.955 203.25 132.335 203.63C132.714 204.01 133.229 204.223 133.766 204.223H229.166C229.702 204.222 230.215 204.008 230.594 203.628C230.972 203.249 231.185 202.735 231.185 202.198C231.185 201.662 230.972 201.148 230.594 200.768C230.215 200.389 229.702 200.175 229.166 200.173H133.766Z" fill="#955540"/>
<path d="M133.766 212.323C133.5 212.323 133.237 212.374 132.991 212.476C132.746 212.577 132.522 212.726 132.334 212.913C132.146 213.101 131.996 213.324 131.894 213.569C131.792 213.815 131.739 214.078 131.738 214.344C131.738 214.61 131.79 214.873 131.891 215.119C131.992 215.365 132.14 215.589 132.328 215.777C132.515 215.965 132.738 216.115 132.984 216.217C133.229 216.32 133.492 216.373 133.758 216.373H174.817C175.083 216.374 175.347 216.322 175.593 216.22C175.838 216.118 176.062 215.969 176.25 215.781C176.438 215.593 176.588 215.37 176.69 215.124C176.792 214.878 176.844 214.614 176.844 214.348C176.844 214.082 176.792 213.818 176.69 213.572C176.588 213.327 176.438 213.103 176.25 212.915C176.062 212.727 175.838 212.578 175.593 212.476C175.347 212.375 175.083 212.323 174.817 212.323H133.766Z" fill="#955540"/>
<path d="M96.4111 231.747C94.8718 231.747 93.6191 232.656 93.6191 233.772C93.6191 234.889 94.8718 235.797 96.4111 235.797H228.034C229.573 235.797 230.826 234.888 230.826 233.772C230.826 232.656 229.573 231.747 228.034 231.747H96.4111Z" fill="#CCCCCC"/>
<path d="M96.4111 243.897C94.8718 243.897 93.6191 244.805 93.6191 245.922C93.6191 247.038 94.8718 247.947 96.4111 247.947H228.034C229.573 247.947 230.826 247.038 230.826 245.922C230.826 244.805 229.573 243.897 228.034 243.897H96.4111Z" fill="#CCCCCC"/>
<path d="M106.917 91.572C113.623 91.572 119.059 86.1324 119.059 79.4222C119.059 72.7121 113.623 67.2725 106.917 67.2725C100.211 67.2725 94.7754 72.7121 94.7754 79.4222C94.7754 86.1324 100.211 91.572 106.917 91.572Z" fill="#955540"/>
<path d="M134.958 71.3228C134.422 71.324 133.909 71.5379 133.53 71.9175C133.152 72.2972 132.939 72.8115 132.939 73.3477C132.939 73.8839 133.152 74.3983 133.53 74.7779C133.909 75.1575 134.422 75.3714 134.958 75.3727H230.358C230.624 75.3735 230.888 75.3219 231.134 75.2208C231.38 75.1197 231.603 74.9711 231.792 74.7834C231.98 74.5957 232.13 74.3727 232.232 74.1271C232.335 73.8815 232.388 73.6181 232.388 73.352C232.389 73.0859 232.337 72.8223 232.236 72.5762C232.134 72.3302 231.986 72.1066 231.798 71.9181C231.61 71.7296 231.387 71.5801 231.142 71.4779C230.896 71.3757 230.633 71.323 230.367 71.3228C230.364 71.3228 230.361 71.3228 230.358 71.3228H134.958Z" fill="#955540"/>
<path d="M134.958 83.4727C134.422 83.4739 133.909 83.6878 133.53 84.0675C133.152 84.4471 132.939 84.9614 132.939 85.4976C132.939 86.0338 133.152 86.5482 133.53 86.9278C133.909 87.3074 134.422 87.5213 134.958 87.5226H176.009C176.275 87.5234 176.539 87.4718 176.785 87.3707C177.031 87.2696 177.254 87.121 177.443 86.9333C177.631 86.7456 177.781 86.5226 177.883 86.277C177.986 86.0314 178.039 85.768 178.039 85.5019C178.04 85.2358 177.988 84.9722 177.887 84.7261C177.785 84.4801 177.637 84.2565 177.449 84.068C177.261 83.8795 177.038 83.73 176.792 83.6278C176.547 83.5256 176.284 83.4729 176.018 83.4727C176.015 83.4727 176.012 83.4727 176.009 83.4727H134.958Z" fill="#955540"/>
<path d="M153.381 165.961H86.2734L102.066 138.589C102.349 138.098 102.756 137.691 103.247 137.408C103.737 137.125 104.293 136.975 104.859 136.975C105.425 136.975 105.981 137.125 106.472 137.408C106.962 137.691 107.369 138.098 107.652 138.589L114.399 150.282L125.87 130.4C126.224 129.786 126.734 129.276 127.348 128.921C127.962 128.567 128.658 128.38 129.367 128.38C130.075 128.38 130.772 128.567 131.386 128.921C131.999 129.276 132.509 129.786 132.863 130.4L153.381 165.961ZM88.3384 164.768H151.317L131.831 130.997C131.581 130.564 131.222 130.204 130.789 129.954C130.357 129.704 129.866 129.573 129.367 129.573C128.867 129.573 128.377 129.704 127.944 129.954C127.512 130.204 127.152 130.564 126.903 130.997L114.399 152.668L106.619 139.186C106.441 138.876 106.184 138.62 105.876 138.441C105.567 138.262 105.216 138.168 104.859 138.168C104.502 138.168 104.152 138.262 103.843 138.441C103.534 138.62 103.277 138.876 103.099 139.186L88.3384 164.768Z" fill="#E6E6E6"/>
<path d="M239.225 165.961H172.117L187.91 138.589C188.193 138.098 188.6 137.691 189.09 137.408C189.581 137.124 190.137 136.975 190.703 136.975C191.269 136.975 191.825 137.124 192.315 137.408C192.806 137.691 193.213 138.098 193.496 138.589L200.242 150.282L211.714 130.4C212.068 129.786 212.578 129.276 213.192 128.921C213.805 128.567 214.502 128.38 215.21 128.38C215.919 128.38 216.616 128.567 217.229 128.921C217.843 129.276 218.353 129.786 218.707 130.4L239.225 165.961ZM174.182 164.768H237.16L217.674 130.997C217.425 130.564 217.066 130.204 216.633 129.954C216.201 129.704 215.71 129.573 215.21 129.573C214.711 129.573 214.22 129.704 213.788 129.954C213.355 130.204 212.996 130.564 212.746 130.997L200.242 152.668L192.463 139.186C192.285 138.876 192.028 138.62 191.719 138.441C191.41 138.262 191.06 138.168 190.703 138.168C190.346 138.168 189.996 138.262 189.687 138.441C189.378 138.62 189.121 138.876 188.943 139.186L174.182 164.768Z" fill="#E6E6E6"/>
<path d="M153.444 165.954H81.9065C81.1162 165.953 80.3586 165.639 79.7998 165.079C79.241 164.52 78.9267 163.762 78.9258 162.971V123.018C78.9267 122.228 79.241 121.469 79.7998 120.91C80.3586 120.351 81.1162 120.037 81.9065 120.036H153.444C154.234 120.037 154.991 120.351 155.55 120.91C156.109 121.469 156.423 122.228 156.424 123.018V162.971C156.423 163.762 156.109 164.52 155.55 165.079C154.991 165.639 154.234 165.953 153.444 165.954ZM81.9065 121.229C81.4323 121.229 80.9777 121.418 80.6424 121.753C80.3071 122.089 80.1185 122.544 80.118 123.018V162.971C80.1185 163.446 80.3071 163.901 80.6424 164.236C80.9777 164.572 81.4323 164.76 81.9065 164.761H153.444C153.918 164.76 154.372 164.572 154.708 164.236C155.043 163.901 155.232 163.446 155.232 162.971V123.018C155.232 122.544 155.043 122.089 154.708 121.753C154.372 121.418 153.918 121.229 153.444 121.229L81.9065 121.229Z" fill="#E6E6E6"/>
<path d="M97.1501 293.491C96.8841 293.49 96.6205 293.542 96.3746 293.644C96.1287 293.745 95.9052 293.895 95.717 294.083C95.5287 294.271 95.3793 294.494 95.2774 294.74C95.1755 294.986 95.123 295.249 95.123 295.516C95.123 295.782 95.1755 296.045 95.2774 296.291C95.3793 296.537 95.5287 296.761 95.717 296.949C95.9052 297.137 96.1287 297.286 96.3746 297.388C96.6205 297.489 96.8841 297.541 97.1501 297.541H138.201C138.738 297.541 139.252 297.327 139.632 296.948C140.011 296.568 140.225 296.053 140.225 295.516C140.225 294.979 140.011 294.464 139.632 294.084C139.252 293.704 138.738 293.491 138.201 293.491H97.1501Z" fill="#E6E6E6"/>
<path d="M97.1501 305.421C96.8841 305.421 96.6205 305.473 96.3746 305.575C96.1287 305.676 95.9052 305.825 95.717 306.013C95.5287 306.201 95.3793 306.425 95.2774 306.671C95.1755 306.917 95.123 307.18 95.123 307.446C95.123 307.713 95.1755 307.976 95.2774 308.222C95.3793 308.468 95.5287 308.691 95.717 308.879C95.9052 309.068 96.1287 309.217 96.3746 309.318C96.6205 309.42 96.8841 309.472 97.1501 309.471H138.201C138.737 309.47 139.251 309.257 139.63 308.877C140.008 308.497 140.221 307.983 140.221 307.446C140.221 306.91 140.008 306.395 139.63 306.016C139.251 305.636 138.737 305.422 138.201 305.421H97.1501Z" fill="#E6E6E6"/>
<path d="M117.675 343.26C115.156 343.26 112.693 342.512 110.599 341.112C108.504 339.711 106.871 337.721 105.907 335.392C104.943 333.063 104.691 330.5 105.182 328.027C105.674 325.555 106.887 323.283 108.668 321.501C110.45 319.718 112.719 318.504 115.19 318.012C117.661 317.521 120.222 317.773 122.55 318.738C124.878 319.703 126.867 321.336 128.267 323.432C129.666 325.529 130.413 327.993 130.413 330.514C130.409 333.893 129.066 337.133 126.678 339.523C124.29 341.912 121.052 343.256 117.675 343.26ZM117.675 318.961C115.392 318.961 113.16 319.638 111.261 320.908C109.362 322.177 107.883 323.982 107.009 326.093C106.135 328.204 105.906 330.527 106.352 332.768C106.797 335.009 107.897 337.067 109.511 338.683C111.126 340.299 113.183 341.399 115.423 341.845C117.663 342.291 119.984 342.062 122.094 341.188C124.203 340.313 126.007 338.832 127.275 336.932C128.544 335.033 129.221 332.799 129.221 330.514C129.217 327.451 128 324.514 125.835 322.348C123.671 320.183 120.736 318.964 117.675 318.961Z" fill="#E6E6E6"/>
<path d="M226.43 343.26C226.696 343.26 226.96 343.208 227.205 343.107C227.451 343.005 227.675 342.856 227.863 342.668C228.051 342.48 228.201 342.257 228.303 342.011C228.405 341.765 228.457 341.501 228.457 341.235C228.457 340.969 228.405 340.705 228.303 340.459C228.201 340.213 228.051 339.99 227.863 339.802C227.675 339.614 227.451 339.465 227.205 339.363C226.96 339.262 226.696 339.21 226.43 339.21H185.379C184.842 339.21 184.328 339.423 183.948 339.803C183.569 340.183 183.355 340.698 183.355 341.235C183.355 341.772 183.569 342.287 183.948 342.667C184.328 343.047 184.842 343.26 185.379 343.26H226.43Z" fill="#E6E6E6"/>
<path d="M226.43 331.329C226.696 331.33 226.96 331.278 227.205 331.176C227.451 331.074 227.675 330.925 227.863 330.737C228.051 330.549 228.201 330.326 228.303 330.08C228.405 329.834 228.457 329.57 228.457 329.304C228.457 329.038 228.405 328.774 228.303 328.529C228.201 328.283 228.051 328.059 227.863 327.871C227.675 327.683 227.451 327.534 227.205 327.432C226.96 327.331 226.696 327.279 226.43 327.279H185.379C184.842 327.279 184.328 327.493 183.948 327.872C183.569 328.252 183.355 328.767 183.355 329.304C183.355 329.841 183.569 330.356 183.948 330.736C184.328 331.116 184.842 331.329 185.379 331.329H226.43Z" fill="#E6E6E6"/>
<path d="M205.904 293.491C208.423 293.491 210.886 294.238 212.981 295.639C215.075 297.039 216.708 299.03 217.672 301.359C218.636 303.688 218.888 306.251 218.397 308.724C217.906 311.196 216.692 313.467 214.911 315.25C213.129 317.032 210.86 318.246 208.389 318.738C205.918 319.23 203.357 318.978 201.029 318.013C198.702 317.048 196.712 315.414 195.313 313.318C193.913 311.222 193.166 308.758 193.166 306.237C193.17 302.858 194.513 299.618 196.901 297.228C199.289 294.839 202.527 293.495 205.904 293.491ZM205.904 317.79C208.187 317.79 210.42 317.113 212.318 315.843C214.217 314.574 215.697 312.769 216.571 310.658C217.444 308.547 217.673 306.224 217.228 303.983C216.782 301.742 215.683 299.683 214.068 298.068C212.453 296.452 210.396 295.352 208.156 294.906C205.917 294.46 203.595 294.689 201.486 295.563C199.376 296.438 197.573 297.918 196.304 299.818C195.035 301.718 194.358 303.952 194.358 306.237C194.362 309.3 195.579 312.236 197.744 314.402C199.908 316.568 202.843 317.787 205.904 317.79Z" fill="#E6E6E6"/>
<path d="M335.709 406.384H326.499L322.117 370.835L335.711 370.836L335.709 406.384Z" fill="#DEB48E"/>
<path d="M317.207 403.75H337.683V414.942H308.736V412.227C308.736 409.979 309.629 407.823 311.217 406.233C312.806 404.644 314.961 403.75 317.207 403.75Z" fill="#2E2D30"/>
<path d="M372.52 406.384H363.31L358.928 370.835L372.521 370.836L372.52 406.384Z" fill="#DEB48E"/>
<path d="M354.018 403.75H374.494V414.942H345.547V412.227C345.547 409.979 346.439 407.823 348.028 406.233C349.617 404.644 351.771 403.75 354.018 403.75Z" fill="#2E2D30"/>
<path d="M319.663 303.905C320.414 303.2 321.001 302.338 321.384 301.382C321.766 300.425 321.935 299.396 321.877 298.367C321.819 297.338 321.536 296.334 321.049 295.426C320.561 294.519 319.881 293.729 319.055 293.113L323.001 277.495L314.102 272.781L308.839 294.914C307.896 296.37 307.521 298.122 307.782 299.837C308.044 301.552 308.926 303.112 310.26 304.22C311.594 305.328 313.288 305.908 315.021 305.85C316.754 305.792 318.406 305.1 319.663 303.905Z" fill="#DEB48E"/>
<path d="M375.797 276.627L375.045 329.25L374.294 398.411L357.766 396.908L349.503 301.435L338.985 396.908H321.922L320.203 300.683L326.214 279.634L375.797 276.627Z" fill="#2E2D30"/>
<path d="M324.566 279.956L324.324 279.847L333.743 215.377L328.955 195.891C328.706 194.877 328.837 193.807 329.324 192.883C329.811 191.96 330.619 191.248 331.596 190.881L340.212 187.648L343.256 179.271L367.272 181.861L367.862 188.407C370.465 189.243 391.896 196.385 390.417 204.522C388.957 212.554 380.34 237.825 379.903 239.105L378.393 275.346L378.208 275.439C377.984 275.551 361.431 283.695 343.448 283.694C337.115 283.694 330.601 282.683 324.566 279.956Z" fill="#505055"/>
<path d="M308.527 286.723L316.099 238.233C316.144 237.947 320.624 209.562 322.109 200.642C323.643 191.434 330.767 191.327 330.839 191.327H334.759L339.345 211.976L330.311 253.406L321.977 287.739L308.527 286.723Z" fill="#505055"/>
<path d="M357.639 281.937C357.688 280.907 357.962 279.901 358.441 278.989C358.92 278.077 359.594 277.281 360.414 276.658C361.234 276.034 362.18 275.598 363.187 275.38C364.194 275.163 365.236 275.168 366.24 275.397L375.556 262.26L384.915 265.978L371.498 284.345C371.003 286.008 369.914 287.43 368.44 288.344C366.966 289.257 365.208 289.598 363.5 289.301C361.791 289.004 360.251 288.09 359.171 286.733C358.091 285.376 357.546 283.669 357.639 281.937Z" fill="#DEB48E"/>
<path d="M367.859 270.639L384.423 242.764L377.674 224.757L386.865 200.231L387.204 200.376C387.426 200.472 392.649 202.804 393.423 211.155L403.985 244.371L375.796 280.963L367.859 270.639Z" fill="#505055"/>
<path d="M369.495 166.123C374.075 157.738 370.996 147.224 362.616 142.641C354.237 138.057 343.73 141.138 339.15 149.524C334.569 157.909 337.648 168.422 346.028 173.006C354.408 177.589 364.914 174.508 369.495 166.123Z" fill="#DEB48E"/>
<path d="M342.712 149.395C344.502 151.515 347.531 152.113 350.325 152.358C356.001 152.856 364.253 152.048 369.799 150.767C370.195 154.606 369.115 158.745 371.375 161.903C372.434 158.08 373.05 154.148 373.211 150.183C373.279 148.483 373.252 146.724 372.562 145.164C371.871 143.603 370.366 142.278 368.632 142.264C369.92 141.286 371.429 140.641 373.026 140.385L367.535 137.624L368.945 136.175L359.005 135.567L361.884 133.736C357.551 133.141 353.167 133.002 348.805 133.323C346.779 133.472 344.661 133.758 343.02 134.932C341.379 136.107 340.431 138.441 341.45 140.165C340.174 140.375 338.973 140.907 337.96 141.711C336.948 142.515 336.157 143.564 335.663 144.759C334.931 146.616 334.998 148.677 335.224 150.655C335.598 153.819 336.333 156.929 337.414 159.925" fill="#2E2D30"/>
</g>
<defs>
<clipPath id="clip0_243_631">
<rect width="437" height="415" fill="white"/>
</clipPath>
</defs>
</svg>
