<svg width="463" height="333" viewBox="0 0 463 333" fill="none" xmlns="http://www.w3.org/2000/svg">
<g clip-path="url(#clip0_243_763)">
<path d="M339.695 0.192383H0.144531V217.932H339.695V0.192383Z" fill="#E6E6E6"/>
<path d="M329.985 27.5024H9.85352V205.05H329.985V27.5024Z" fill="white"/>
<path d="M339.551 0H0V14.4435H339.551V0Z" fill="#955540"/>
<path d="M10.7207 10.062C12.1975 10.062 13.3946 8.86337 13.3946 7.38477C13.3946 5.90616 12.1975 4.70752 10.7207 4.70752C9.244 4.70752 8.04688 5.90616 8.04688 7.38477C8.04688 8.86337 9.244 10.062 10.7207 10.062Z" fill="white"/>
<path d="M20.8692 10.062C22.3459 10.062 23.543 8.86337 23.543 7.38477C23.543 5.90616 22.3459 4.70752 20.8692 4.70752C19.3924 4.70752 18.1953 5.90616 18.1953 7.38477C18.1953 8.86337 19.3924 10.062 20.8692 10.062Z" fill="white"/>
<path d="M31.0156 10.062C32.4924 10.062 33.6895 8.86337 33.6895 7.38477C33.6895 5.90616 32.4924 4.70752 31.0156 4.70752C29.5389 4.70752 28.3418 5.90616 28.3418 7.38477C28.3418 8.86337 29.5389 10.062 31.0156 10.062Z" fill="white"/>
<path d="M111.855 42.106H49.2422V110.122H111.855V42.106Z" fill="#E6E6E6"/>
<path d="M201.226 42.106H138.613V110.122H201.226V42.106Z" fill="#E6E6E6"/>
<path d="M290.595 42.106H227.982V110.122H290.595V42.106Z" fill="#E6E6E6"/>
<path d="M111.855 122.433H49.2422V190.449H111.855V122.433Z" fill="#E6E6E6"/>
<path d="M201.226 122.433H138.613V190.449H201.226V122.433Z" fill="#E6E6E6"/>
<path d="M290.595 122.433H227.982V190.449H290.595V122.433Z" fill="#E6E6E6"/>
<path d="M394.705 146.519H424.725V130.435C424.725 126.449 423.143 122.627 420.328 119.808C417.514 116.99 413.696 115.406 409.715 115.406C405.734 115.406 401.916 116.99 399.101 119.808C396.286 122.627 394.705 126.449 394.705 130.435V146.519Z" fill="#333333"/>
<path d="M381.304 325.465H374.847L371.775 300.526H381.305L381.304 325.465Z" fill="#DEB48E"/>
<path d="M382.952 323.354H370.236C368.087 323.354 366.026 324.209 364.507 325.73C362.987 327.252 362.133 329.315 362.133 331.467V331.731H382.952V323.354Z" fill="#333333"/>
<path d="M458.489 316.837L452.866 320.015L437.947 299.813L446.246 295.122L458.489 316.837Z" fill="#DEB48E"/>
<path d="M458.886 314.188L447.813 320.446C445.941 321.504 444.566 323.263 443.99 325.336C443.414 327.409 443.684 329.626 444.74 331.5L444.87 331.73L463 321.482L458.886 314.188Z" fill="#333333"/>
<path d="M417.223 213.317L417.721 215.811C417.721 215.811 419.216 217.308 418.469 218.056C417.721 218.804 417.97 222.297 417.97 222.297C418.389 228.665 426.699 264.45 428.185 271.438C428.185 271.438 439.645 278.922 448.614 293.639C457.582 308.356 457.83 312.098 457.83 312.098L447.867 316.339L422.956 286.156C422.956 286.156 415.98 281.915 413.489 278.174C410.997 274.432 395.548 235.767 395.548 235.767L386.827 276.178C386.827 276.178 387.325 290.895 385.083 300.374C383.705 306.356 382.871 312.451 382.592 318.584L370.883 317.337C370.883 317.337 371.63 281.915 372.876 278.173C372.876 278.173 367.644 235.019 378.108 217.807L386.54 195.297L394.799 192.114L417.223 213.317Z" fill="#333333"/>
<path d="M409.87 119.338C394.151 119.607 394.154 143.019 409.87 143.285C425.589 143.017 425.587 119.605 409.87 119.338Z" fill="#DEB48E"/>
<path d="M397.771 130.69H400.443L401.171 128.869L400.807 130.69H415.419L414.945 126.879L418.497 130.69H422.039V128.625C422.041 127.03 421.728 125.45 421.119 123.976C420.51 122.501 419.618 121.161 418.492 120.033C417.366 118.904 416.029 118.008 414.557 117.396C413.086 116.785 411.508 116.469 409.915 116.468C408.321 116.467 406.744 116.78 405.271 117.39C403.799 117.999 402.46 118.893 401.333 120.02C400.205 121.148 399.311 122.486 398.7 123.96C398.089 125.433 397.774 127.013 397.773 128.608V128.625L397.771 130.69Z" fill="#333333"/>
<path d="M393.66 150.276L423.363 150.517L417.088 214.28C417.088 214.28 382.35 212.445 382.328 201.828L385.582 192.394L393.66 150.276Z" fill="#2E2E2E"/>
<path d="M424.64 220.444C424.184 219.884 423.855 219.231 423.678 218.53C423.501 217.83 423.48 217.099 423.615 216.389C423.751 215.679 424.04 215.007 424.463 214.421C424.886 213.835 425.432 213.349 426.062 212.997L424.772 201.772L431.393 199.323L432.994 215.201C433.51 216.301 433.607 217.552 433.265 218.718C432.923 219.884 432.167 220.884 431.138 221.53C430.11 222.175 428.881 222.421 427.684 222.221C426.486 222.021 425.404 221.389 424.64 220.444Z" fill="#DEB48E"/>
<path d="M419.458 156.011L423.366 150.541C423.366 150.541 426.041 149.946 429.201 153.638C432.361 157.329 434.205 203.47 434.205 203.47L422.618 206.107L415.771 173.412L419.458 156.011Z" fill="#2E2E2E"/>
<path d="M353.986 206.048L354.848 247.041L381.352 261.065L429.619 252.435L430.805 209.824L400.207 199.036L353.986 206.048Z" fill="white"/>
<path d="M381.283 261.508L354.43 247.299L353.555 205.685L400.247 198.601L400.347 198.636L431.236 209.527L430.033 252.792L381.283 261.508ZM355.265 246.783L381.421 260.622L429.206 252.078L430.373 210.121L400.165 199.471L354.417 206.411L355.265 246.783Z" fill="#CACACA"/>
<path d="M380.761 217.162L380.657 217.121L353.83 206.441L354.142 205.654L380.866 216.292L430.747 209.404L430.863 210.243L380.761 217.162Z" fill="#CACACA"/>
<path d="M381.237 216.722L380.391 216.732L380.929 261.07L381.776 261.06L381.237 216.722Z" fill="#CACACA"/>
<path d="M377.372 215.04L367.701 211.115L414.255 203.688L423.926 207.612L377.372 215.04Z" fill="#CACACA"/>
<path d="M354.153 217.939L353.818 218.718L365.034 223.553L365.369 222.774L354.153 217.939Z" fill="#CACACA"/>
<path d="M359.233 231.924L358.898 232.703L370.114 237.538L370.449 236.759L359.233 231.924Z" fill="#955540"/>
<path d="M206.521 262.999L207.383 303.992L233.887 318.016L282.155 309.386L283.34 266.775L252.742 255.987L206.521 262.999Z" fill="white"/>
<path d="M233.818 318.459L206.965 304.25L206.09 262.636L252.782 255.552L252.882 255.587L283.771 266.478L282.568 309.743L233.818 318.459ZM207.801 303.734L233.956 317.574L281.741 309.03L282.908 267.072L252.7 256.422L206.952 263.362L207.801 303.734Z" fill="#CACACA"/>
<path d="M233.296 274.114L233.192 274.073L206.365 263.393L206.678 262.605L233.401 273.244L283.282 266.355L283.398 267.195L233.296 274.114Z" fill="#CACACA"/>
<path d="M233.772 273.674L232.926 273.684L233.464 318.022L234.311 318.011L233.772 273.674Z" fill="#CACACA"/>
<path d="M227.564 271.027L220.236 268.067L266.79 260.639L274.118 263.6L227.564 271.027Z" fill="#CACACA"/>
<path d="M206.688 274.891L206.354 275.669L217.569 280.505L217.904 279.726L206.688 274.891Z" fill="#CACACA"/>
<path d="M211.768 288.876L211.434 289.654L222.65 294.49L222.984 293.711L211.768 288.876Z" fill="#955540"/>
<path d="M252.566 268.62L253.567 316.207L284.334 332.486L340.365 322.468L341.74 273.003L306.221 260.48L252.566 268.62Z" fill="#955540"/>
<path d="M284.254 333L253.082 316.506L252.066 268.198L306.269 259.975L306.384 260.016L342.242 272.658L340.845 322.881L284.254 333ZM254.052 315.906L284.414 331.972L339.885 322.054L341.24 273.348L306.174 260.984L253.067 269.041L254.052 315.906Z" fill="#2E2E2E"/>
<path d="M283.647 281.522L283.527 281.474L252.385 269.077L252.748 268.163L283.769 280.512L341.673 272.516L341.807 273.49L283.647 281.522Z" fill="#2E2E2E"/>
<path d="M284.199 281.011L283.217 281.023L283.842 332.492L284.825 332.48L284.199 281.011Z" fill="#2E2E2E"/>
<path d="M277.491 277.961L268.486 274.503L322.528 265.88L331.533 269.339L277.491 277.961Z" fill="#2E2E2E"/>
<path d="M252.762 282.424L252.373 283.328L265.393 288.941L265.782 288.037L252.762 282.424Z" fill="#2E2E2E"/>
<path d="M258.656 298.658L258.268 299.562L271.287 305.175L271.676 304.271L258.656 298.658Z" fill="white"/>
<path d="M369.013 212.826C369.666 212.519 370.245 212.072 370.707 211.517C371.169 210.962 371.505 210.312 371.689 209.614C371.873 208.915 371.903 208.184 371.774 207.473C371.646 206.761 371.364 206.087 370.947 205.496L376.963 195.936L372.052 190.859L363.746 204.479C362.803 205.246 362.173 206.333 361.976 207.534C361.779 208.734 362.029 209.966 362.678 210.995C363.327 212.023 364.33 212.778 365.498 213.116C366.665 213.454 367.916 213.351 369.013 212.827V212.826Z" fill="#DEB48E"/>
<path d="M398.226 152.79L393.916 149.946C393.916 149.946 390.59 150.693 387.053 157.505C383.516 164.317 369.252 194.772 369.252 194.772L375.115 200.731L390.757 176.838L398.226 152.79Z" fill="#2E2E2E"/>
</g>
<defs>
<clipPath id="clip0_243_763">
<rect width="463" height="333" fill="white"/>
</clipPath>
</defs>
</svg>
