<svg width="433" height="309" viewBox="0 0 433 309" fill="none" xmlns="http://www.w3.org/2000/svg">
<g clip-path="url(#clip0_243_699)">
<path d="M358.477 195.514C358.854 194.731 359.055 193.874 359.065 193.005C359.074 192.135 358.893 191.274 358.534 190.482C358.175 189.69 357.646 188.986 356.986 188.42C356.325 187.854 355.548 187.44 354.709 187.207L353.392 166.111L344.609 172.717L347.207 191.737C346.908 193.171 347.145 194.664 347.874 195.933C348.603 197.203 349.773 198.162 351.163 198.627C352.552 199.093 354.064 199.033 355.412 198.46C356.76 197.886 357.85 196.838 358.477 195.514Z" fill="#DEB48E"/>
<path d="M396.764 278.439L403.74 280.438L414.777 254.502L404.48 251.552L396.764 278.439Z" fill="#DEB48E"/>
<path d="M415.338 290.766L393.411 284.484L395.84 276.019L409.295 279.874C411.542 280.518 413.441 282.027 414.574 284.069C415.707 286.112 415.982 288.521 415.338 290.766Z" fill="#2E2D30"/>
<path d="M385.584 302.266L378.326 302.266L374.873 274.295L385.585 274.296L385.584 302.266Z" fill="#DEB48E"/>
<path d="M373.141 300.194H387.139V308.999H364.328C364.328 307.843 364.556 306.698 364.999 305.63C365.442 304.561 366.091 303.591 366.909 302.773C367.728 301.955 368.699 301.307 369.769 300.864C370.838 300.422 371.984 300.194 373.141 300.194Z" fill="#2E2D30"/>
<path d="M365.512 188.226C365.512 188.226 361.368 204.788 368.472 238.503L373.8 296.47L387.416 297.062L385.64 234.363L390.376 208.337L402.216 244.418L398.072 269.853L408.136 274.585L419.384 239.686C419.384 239.686 418.2 191.184 413.464 185.269L365.512 188.226Z" fill="#2E2D30"/>
<path d="M382.704 93.8833C390.735 93.8833 397.245 87.3789 397.245 79.3555C397.245 71.332 390.735 64.8276 382.704 64.8276C374.674 64.8276 368.164 71.332 368.164 79.3555C368.164 87.3789 374.674 93.8833 382.704 93.8833Z" fill="#DEB48E"/>
<path d="M374.984 101.417C374.984 101.417 374.096 103.369 384.752 102.163C395.408 100.958 397.776 97.4312 397.776 97.4312L416.425 179.164L415.241 186.396L364.328 189.409V179.164L373.208 124.922L374.984 101.417Z" fill="#E6E6E6"/>
<path d="M379.343 187.343L363.204 187.039L363.152 186.814C361.068 175.607 361.269 164.095 363.743 152.967C367.003 138.545 359.596 118.986 356.261 111.247C355.868 110.326 355.821 109.295 356.129 108.342C356.437 107.39 357.079 106.581 357.936 106.064L369.361 99.2156C370.138 98.7496 371.014 98.4715 371.918 98.4036C372.822 98.3357 373.729 98.4798 374.568 98.8245C375.406 99.1692 376.152 99.705 376.746 100.389C377.341 101.073 377.767 101.886 377.991 102.764L379.988 110.593C389.188 120.477 388.543 140.75 386.377 156.031C384.829 166.557 382.5 176.953 379.41 187.133L379.343 187.343Z" fill="#2E2D30"/>
<path d="M361.072 104.529L359.676 105.484C356.522 107.626 354.154 110.737 352.93 114.346C352.219 116.45 351.675 118.606 351.304 120.796C350.12 127.894 344.792 158.06 344.792 158.06L342.424 187.635L355.448 184.677L361.368 150.37L367.288 129.077L361.072 104.529Z" fill="#2E2D30"/>
<path d="M407.387 187.484L407.264 187.144C406.418 184.799 386.661 129.57 395.992 110.095L395.078 100.962C394.98 99.9833 395.127 98.9959 395.505 98.0882C395.883 97.1805 396.482 96.381 397.246 95.7614C398.01 95.1418 398.916 94.7215 399.883 94.5384C400.85 94.3553 401.847 94.415 402.785 94.7123L417.063 99.2351C417.653 99.4189 418.167 99.788 418.529 100.288C418.891 100.787 419.082 101.39 419.073 102.007C419.014 107.257 418.724 120.638 417.308 131.48C415.559 144.884 421.391 178.375 421.45 178.711L421.485 178.91L407.387 187.484Z" fill="#2E2D30"/>
<path d="M401.096 172.799C401.113 171.93 401.32 171.075 401.703 170.294C402.087 169.513 402.637 168.826 403.315 168.281C403.993 167.736 404.782 167.346 405.627 167.138C406.472 166.931 407.353 166.911 408.207 167.08L418.899 148.842L423.759 158.694L412.86 174.503C412.48 175.917 411.595 177.143 410.371 177.948C409.147 178.753 407.67 179.082 406.22 178.872C404.77 178.662 403.448 177.928 402.503 176.808C401.559 175.689 401.058 174.263 401.096 172.799Z" fill="#DEB48E"/>
<path d="M414.943 99.2056L415.709 99.3821C416.656 99.6004 417.534 100.051 418.263 100.692C418.992 101.334 419.551 102.147 419.887 103.058L433 138.54L417.607 172.256L411.983 158.355L419.087 142.976L406.359 126.71L414.943 99.2056Z" fill="#2E2D30"/>
<path d="M397.442 81.364C398.278 79.2102 398.903 76.9808 399.309 74.707C399.713 72.4202 399.443 70.0655 398.534 67.9286C397.557 66.0597 396.19 64.4221 394.525 63.1263C393.384 62.1567 392.186 61.2558 390.937 60.4287C387.419 58.0976 386.654 60.2187 382.434 59.7416C378.215 59.2644 373.486 58.0519 370.104 60.5683C367.917 62.2284 366.275 64.5026 365.388 67.1001C364.501 69.6977 364.41 72.5005 365.126 75.1502C366.069 78.3558 365.318 79.4124 368.23 81.145C368.228 78.26 369.326 75.4828 371.301 73.3782C373.318 71.2663 376.048 69.9765 378.961 69.7581C381.205 69.5956 383.44 70.074 385.637 70.5494C387.769 71.0107 389.958 71.4956 391.765 72.6951C394.759 74.6831 396.163 78.2334 397.397 81.5636" fill="#2E2D30"/>
<path d="M258.114 137.819H0V139.002H258.114V137.819Z" fill="#E6E6E6"/>
<path d="M258.114 91.6821H0V92.8651H258.114V91.6821Z" fill="#E6E6E6"/>
<path d="M258.114 45.5454H0V46.7284H258.114V45.5454Z" fill="#E6E6E6"/>
<path d="M207 0H206V212H207V0Z" fill="#E6E6E6"/>
<path d="M155 0H154V212H155V0Z" fill="#E6E6E6"/>
<path d="M104 0H103V212H104V0Z" fill="#E6E6E6"/>
<path d="M52 0H51V212H52V0Z" fill="#E6E6E6"/>
<path d="M155.105 46.1367H51.5039V92.2736H155.105V46.1367Z" fill="#955540"/>
<path d="M51.5039 88.7246V138.41L105.376 90.4991L51.5039 88.7246Z" fill="#955540"/>
<path d="M155.106 90.4991V92.2736L154.431 92.871L153.07 94.0777C126.589 94.8762 105.2 113.828 104.235 137.328L103.022 138.405L103.01 138.41V88.7246L155.106 90.4991Z" fill="#955540"/>
<path d="M154.5 93C154.376 93 154.247 93 154.123 93.0066C126.119 93.2047 103.359 115.865 103.012 143.833C103 144.058 103 144.276 103 144.5C103 172.898 126.101 196 154.5 196C182.899 196 206 172.898 206 144.5C206 116.102 182.899 93 154.5 93ZM154.5 194.679C126.755 194.679 104.177 172.171 104.177 144.5C104.177 143.873 104.189 143.252 104.218 142.631C105.178 116.399 126.443 95.2449 152.77 94.3535C153.341 94.3271 153.917 94.3205 154.5 94.3205C182.245 94.3205 204.823 116.829 204.823 144.5C204.823 172.171 182.245 194.679 154.5 194.679Z" fill="#E6E6E6"/>
<path d="M126.394 138.42L123.434 138.404C123.435 138.141 123.909 112.094 154.189 110.287L154.365 113.239C126.903 114.878 126.401 137.46 126.394 138.42Z" fill="#E6E6E6"/>
<path d="M184.693 137.819C184.579 134.448 183.787 131.134 182.365 128.074C180.944 125.014 178.92 122.272 176.416 120.009C170.53 114.646 162.834 111.699 154.868 111.758H154.808C138.546 111.758 125.273 123.392 124.924 137.819C124.912 138.014 124.912 138.215 124.912 138.411C124.912 145.958 128.446 152.778 134.118 157.628C139.908 162.489 147.245 165.126 154.808 165.064H154.868C171.325 165.034 184.705 153.092 184.705 138.411C184.705 138.215 184.705 138.014 184.693 137.819Z" fill="#E6E6E6"/>
<path d="M176.417 120.009L175.529 120.796L135.006 156.842L134.118 157.628C128.447 152.778 124.912 145.958 124.912 138.411C124.912 138.215 124.912 138.014 124.924 137.819C125.273 123.392 138.546 111.758 154.808 111.758H154.868C162.834 111.699 170.53 114.646 176.417 120.009Z" fill="#955540"/>
</g>
<defs>
<clipPath id="clip0_243_699">
<rect width="433" height="309" fill="white"/>
</clipPath>
</defs>
</svg>
