<svg width="421" height="304" viewBox="0 0 421 304" fill="none" xmlns="http://www.w3.org/2000/svg">
<g clip-path="url(#clip0_243_670)">
<path d="M84.9152 186.637C84.1877 186.67 83.4676 186.479 82.8523 186.09C82.2371 185.7 81.7564 185.131 81.4755 184.459C81.1946 183.787 81.127 183.045 81.2818 182.333C81.4367 181.622 81.8065 180.975 82.3413 180.481C82.4308 180.125 82.4951 179.869 82.5846 179.513C82.5526 179.436 82.5203 179.358 82.4879 179.281C79.2182 171.484 68.137 171.538 64.8951 179.346C62.0177 186.277 58.3543 193.219 57.4523 200.547C57.055 203.786 57.2226 207.069 57.9476 210.251C51.1894 195.508 47.6801 179.484 47.6575 163.267C47.6561 159.197 47.8822 155.13 48.3347 151.086C48.7088 147.77 49.2277 144.478 49.8915 141.21C53.5137 123.476 61.2908 106.854 72.5842 92.7095C78.0501 89.727 82.4705 85.1407 85.2497 79.5685C86.2565 77.5655 86.9681 75.4273 87.3623 73.2204C86.7457 73.3012 86.119 73.3518 85.5024 73.3922C85.3103 73.4023 85.1082 73.4123 84.9161 73.4225L84.8437 73.4258C84.166 73.4562 83.494 73.29 82.9085 72.9474C82.3231 72.6048 81.8492 72.1002 81.5438 71.4944C81.2385 70.8887 81.1147 70.2076 81.1874 69.5332C81.2602 68.8587 81.5263 68.2196 81.9538 67.6929C82.22 67.3653 82.4864 67.0378 82.7529 66.7105C83.1573 66.205 83.5717 65.7097 83.976 65.2044C84.0227 65.1564 84.0666 65.1057 84.1074 65.0527C84.5725 64.4765 85.0374 63.9104 85.5024 63.3342C84.6537 62.0168 83.5121 60.9133 82.1667 60.1097C77.5068 57.3804 71.0781 59.2707 67.712 63.4859C64.3359 67.701 63.6992 73.6146 64.8716 78.8811C65.8724 83.3895 68.0557 87.5238 70.512 91.4559C70.2593 91.7794 69.9964 92.0928 69.7438 92.4163C65.1243 98.3565 61.0981 104.735 57.7229 111.461C58.6778 104.001 57.268 95.0149 54.8646 89.222C52.1286 82.6217 47.0006 77.0629 42.4847 71.357C37.0604 64.5032 25.9374 67.4944 24.9817 76.1825C24.9725 76.2667 24.9635 76.3507 24.9547 76.4348C25.6254 76.8132 26.282 77.2149 26.9244 77.6398C27.7315 78.179 28.3568 78.9495 28.7185 79.8502C29.0802 80.7509 29.1614 81.7399 28.9515 82.6875C28.7415 83.6352 28.2502 84.4973 27.542 85.161C26.8337 85.8247 25.9414 86.2589 24.9821 86.4068L24.8839 86.422C25.1229 88.8395 25.5452 91.2354 26.1474 93.5889C27.8922 100.159 30.9756 106.298 35.204 111.621C39.4325 116.944 44.715 121.335 50.7202 124.521C51.1145 124.723 51.4986 124.925 51.8929 125.117C48.5018 134.727 46.3747 144.738 45.5652 154.897C45.1068 160.89 45.1339 166.911 45.646 172.9C45.6359 172.829 45.6258 172.758 45.6157 172.688C44.3217 166.028 40.7692 160.019 35.558 155.675C27.8182 149.317 16.8832 146.975 8.53321 141.865C4.51377 139.404 -0.636843 142.584 0.0646579 147.244C0.0758639 147.318 0.0872438 147.393 0.0988046 147.467C1.34353 147.974 2.55548 148.558 3.72759 149.216C4.39834 149.594 5.05494 149.996 5.69736 150.421C6.5044 150.96 7.12975 151.73 7.49145 152.631C7.85316 153.532 7.93435 154.521 7.72441 155.468C7.51446 156.416 7.02316 157.278 6.31488 157.942C5.6066 158.606 4.71436 159.04 3.75508 159.188L3.65677 159.203C3.58604 159.213 3.52536 159.223 3.45471 159.233C5.5815 164.312 8.56653 168.986 12.279 173.051C16.8653 177.973 22.4083 181.905 28.5683 184.608C34.7283 187.311 41.3755 188.727 48.1023 188.77H48.1124C49.9384 196.705 52.5841 204.429 56.0069 211.817H84.2085C84.3097 211.504 84.4006 211.181 84.4916 210.867C81.8812 211.031 79.2605 210.875 76.6881 210.402C78.7805 207.835 80.8728 205.247 82.9652 202.679C83.0119 202.631 83.0558 202.581 83.0966 202.528C84.158 201.214 85.2294 199.91 86.2908 198.596L86.2913 198.594C86.3479 194.566 85.8857 190.547 84.9161 186.637L84.9152 186.637Z" fill="#F2F2F2"/>
<path d="M420.332 212.89L0.807759 213.062C0.630823 213.062 0.461136 212.991 0.336024 212.866C0.210911 212.741 0.140625 212.571 0.140625 212.395C0.140625 212.218 0.210911 212.048 0.336024 211.923C0.461136 211.798 0.630823 211.727 0.807759 211.727L420.332 211.555C420.509 211.555 420.679 211.625 420.804 211.751C420.929 211.876 420.999 212.045 420.999 212.222C420.999 212.399 420.929 212.569 420.804 212.694C420.679 212.819 420.509 212.89 420.332 212.89Z" fill="#CACACA"/>
<path d="M355.683 212.467C336.581 213.275 325.78 212.687 311.855 200.6C302.374 200.348 294.838 193.491 295.055 185.316C295.273 177.14 303.163 170.694 312.643 170.946L347.067 172.578C356.548 172.83 374.179 172.247 373.961 180.423C373.855 184.437 373.853 189.642 373.48 195.095C373.174 199.674 371.188 203.979 367.904 207.185C364.62 210.391 360.268 212.272 355.683 212.467Z" fill="#2E2D30"/>
<path d="M294.329 288.997L284.466 290.608L273.557 253.332L288.113 250.953L294.329 288.997Z" fill="#DEB48E"/>
<path d="M290.408 211.268C308.797 215.789 322.375 210.697 333.559 211.357C339.916 200.63 360.21 187.004 349.137 181.268C342.971 178.074 280.288 170.71 272.059 179.209C250.899 201.061 277.171 270.073 277.171 270.073L291.783 269.884L296.451 263.221L292.691 255.958L296.248 250.02L292.177 243.904L290.408 211.268Z" fill="#2E2D30"/>
<path d="M301.111 296.445L294.65 298.175L291.863 292.383L290.542 299.275L273.405 303.864C272.583 304.084 271.713 304.035 270.921 303.726C270.129 303.416 269.456 302.861 269.002 302.143C268.548 301.424 268.335 300.578 268.395 299.73C268.455 298.882 268.784 298.075 269.335 297.427L280.49 284.31L278.839 278.143L293.464 275.147L301.111 296.445Z" fill="#2E2D30"/>
<path d="M375.153 276.847L367.955 283.78L337.789 259.316L348.413 249.083L375.153 276.847Z" fill="#DEB48E"/>
<path d="M317.129 199.769C333.985 206.261 348.728 199.041 363.293 190.671C362.425 178.231 361.94 160.294 349.57 161.87C342.681 162.748 285.746 172.156 283.808 183.826C278.823 213.834 350.282 271.033 350.282 271.033L362.196 262.57L362.249 254.434L355.026 250.597L354.577 243.69L347.751 240.972L317.129 199.769Z" fill="#2E2D30"/>
<path d="M384.968 279.118L380.636 284.215L375.05 281.034L377.882 287.455L366.392 300.973C365.841 301.621 365.097 302.076 364.27 302.272C363.442 302.467 362.574 302.393 361.791 302.06C361.009 301.727 360.353 301.153 359.92 300.421C359.487 299.689 359.3 298.837 359.385 297.991L361.105 280.859L356.24 276.724L366.569 265.945L384.968 279.118Z" fill="#2E2D30"/>
<path d="M308.241 175.019C307.054 175.019 306.379 174.786 306.118 174.287C305.735 173.554 303.288 172.596 304.058 171.487C304.595 170.715 305.891 169.68 305.392 169.084C303.47 166.788 298.671 100.947 297.54 91.965C297.262 89.1848 297.639 86.3782 298.64 83.7698C301.808 74.7935 306.132 72.0347 314.747 66.5396C315.447 66.0934 316.175 65.6274 316.932 65.1417C317.911 64.5123 317.857 65.9821 317.799 63.7723C317.735 61.3164 317.669 58.7765 318.872 57.1891L318.95 57.0856L319.076 57.0562C321.986 56.3835 331.774 55.1345 337.57 57.0653L337.65 57.0926L337.71 57.152C339.087 58.529 339.212 61.1961 339.334 63.7751C339.433 65.8927 339.527 64.3354 340.306 65.2039C343.284 68.5232 347.77 70.441 351.513 71.5291C353.858 72.2029 355.912 73.6401 357.349 75.613C358.786 77.586 359.523 79.982 359.445 82.4214C359.039 94.7094 359.358 114.14 357.261 127.832C353.77 150.621 385.638 183.532 367.385 184.208C367.432 184.28 367.457 184.363 367.46 184.448C367.463 184.533 367.442 184.618 367.4 184.692C366.097 187.126 312.717 175.019 308.241 175.019Z" fill="#E6E6E6"/>
<path d="M326.713 55.227C338.729 55.227 348.47 45.4855 348.47 33.4687C348.47 21.452 338.729 11.7104 326.713 11.7104C314.696 11.7104 304.955 21.452 304.955 33.4687C304.955 45.4855 314.696 55.227 326.713 55.227Z" fill="#2E2D30"/>
<path d="M328.465 57.0229C337.097 56.7783 343.896 49.5821 343.652 40.9497C343.407 32.3173 336.211 25.5176 327.579 25.7622C318.947 26.0068 312.147 33.203 312.392 41.8354C312.637 50.4678 319.833 57.2675 328.465 57.0229Z" fill="#DEB48E"/>
<path d="M328.173 17.5458L321.835 17.7254C317.841 17.8418 314.055 19.5383 311.31 22.4425C308.565 25.3467 307.085 29.2214 307.193 33.2162L307.197 33.3565L307.313 33.4289C310.758 35.7085 314.824 36.8655 318.953 36.741L319.31 36.731L322.812 36.5723C323.401 35.0553 323.598 33.4142 323.385 31.8009C323.914 33.3302 324.327 34.8972 324.62 36.4886L340.334 35.7732C341.249 35.7279 342.109 35.3271 342.732 34.6563C343.355 33.9855 343.691 33.0978 343.669 32.1826C343.551 28.188 341.853 24.4034 338.948 21.6593C336.043 18.9152 332.168 17.4358 328.173 17.5458Z" fill="#2E2D30"/>
<path d="M315.542 13.6221C314.112 15.3864 311.815 16.1215 309.751 17.077C306.109 18.7993 302.942 21.3839 300.525 24.6068C298.108 27.8297 296.514 31.5935 295.88 35.572C295.394 38.8116 295.564 42.1462 294.74 45.3144C293.922 48.4825 291.764 51.6291 288.556 52.2657C286.385 52.7001 284.175 51.9198 282.1 51.1464C280.958 50.7248 279.817 50.3015 278.676 49.8763C279.769 46.8896 280.86 43.9029 281.95 40.9163C280.143 43.7569 278.023 46.3854 275.629 48.7523C271.539 47.2363 267.445 45.7204 263.348 44.2046C273.315 43.96 271.341 34.3328 273.295 24.5618C274.37 19.1927 284.704 15.2849 286.606 10.1516C287.634 7.36751 289.438 4.93609 291.804 3.14514C294.17 1.35419 297 0.278681 299.959 0.0459058C302.917 -0.18687 305.881 0.432836 308.498 1.83167C311.115 3.23051 313.277 5.34991 314.727 7.93906C316.797 8.69636 316.947 11.8802 315.542 13.6221Z" fill="#2E2D30"/>
<path d="M316.539 20.0933C321.014 20.0933 324.641 16.4659 324.641 11.9912C324.641 7.51658 321.014 3.88916 316.539 3.88916C312.065 3.88916 308.438 7.51658 308.438 11.9912C308.438 16.4659 312.065 20.0933 316.539 20.0933Z" fill="#2E2D30"/>
<path d="M345.318 136.998H307.915C306.634 136.996 305.406 136.487 304.501 135.581C303.595 134.675 303.085 133.447 303.084 132.167V91.9605C303.085 90.6796 303.595 89.4517 304.5 88.546C305.406 87.6403 306.634 87.1308 307.915 87.1294H345.318C346.599 87.1308 347.827 87.6403 348.733 88.546C349.638 89.4517 350.148 90.6796 350.149 91.9605V132.167C350.148 133.447 349.638 134.675 348.733 135.581C347.827 136.487 346.599 136.996 345.318 136.998Z" fill="#3F3D56"/>
<path d="M308.968 95.8141C310.515 95.8141 311.769 94.5598 311.769 93.0125C311.769 91.4653 310.515 90.2109 308.968 90.2109C307.42 90.2109 306.166 91.4653 306.166 93.0125C306.166 94.5598 307.42 95.8141 308.968 95.8141Z" fill="#E6E6E6"/>
<path d="M308.968 94.6939C309.896 94.6939 310.649 93.9413 310.649 93.013C310.649 92.0846 309.896 91.332 308.968 91.332C308.04 91.332 307.287 92.0846 307.287 93.013C307.287 93.9413 308.04 94.6939 308.968 94.6939Z" fill="#3F3D56"/>
<path d="M320.716 135.045L295.025 128.53L291.031 141.75C291.031 141.75 318.671 143.796 319.704 143.806C320.477 144.899 321.563 145.732 322.819 146.195C324.076 146.658 325.443 146.728 326.74 146.397C328.037 146.065 329.203 145.348 330.084 144.34C330.964 143.331 331.518 142.079 331.671 140.749C331.825 139.419 331.571 138.074 330.944 136.892C330.316 135.709 329.344 134.745 328.157 134.127C326.969 133.508 325.622 133.265 324.294 133.429C322.965 133.593 321.717 134.157 320.716 135.045Z" fill="#DEB48E"/>
<path d="M303.571 75.0981C285.253 84.8872 277.225 106.71 265.987 125.888C265.755 127.983 265.962 130.104 266.596 132.114C267.23 134.125 268.277 135.981 269.669 137.564C271.062 139.147 272.769 140.422 274.682 141.308C276.595 142.193 278.672 142.67 280.78 142.707L302.766 143.213L300.01 129.647L292.656 125.468L301.349 104.44L303.571 75.0981Z" fill="#E6E6E6"/>
<path d="M330.723 96.2928L348.258 117.571L341.017 129.046C341.017 129.046 323.386 101.482 322.988 100.528C321.685 100.224 320.504 99.5312 319.602 98.5414C318.701 97.5517 318.121 96.3116 317.94 94.9851C317.758 93.6587 317.984 92.3085 318.587 91.113C319.189 89.9176 320.141 88.9333 321.315 88.2904C322.489 87.6474 323.831 87.3761 325.163 87.5124C326.495 87.6486 327.754 88.1859 328.773 89.0533C329.793 89.9207 330.526 91.0772 330.874 92.3699C331.222 93.6626 331.17 95.0306 330.723 96.2928Z" fill="#DEB48E"/>
<path d="M357.154 75.6429C362.446 72.7181 377.884 117.825 361.639 143.479C359.785 144.483 357.743 145.089 355.641 145.258C353.54 145.428 351.426 145.157 349.436 144.463C347.445 143.769 345.621 142.667 344.081 141.228C342.54 139.789 341.317 138.044 340.489 136.106L332.08 115.525L345.553 111.229L351.988 118.613L351.092 103.923L358.75 83.0444L357.154 75.6429Z" fill="#E6E6E6"/>
<path d="M181.763 53.1931C195.678 53.1931 206.958 41.9126 206.958 27.9974C206.958 14.0822 195.678 2.80176 181.763 2.80176C167.848 2.80176 156.568 14.0822 156.568 27.9974C156.568 41.9126 167.848 53.1931 181.763 53.1931Z" fill="#955540"/>
<path d="M193.027 23.5381H170.502C169.557 23.5381 168.65 23.9136 167.982 24.5822C167.313 25.2507 166.938 26.1574 166.938 27.1028V49.6279C166.938 50.5734 167.313 51.4801 167.982 52.1486C168.65 52.8172 169.557 53.1928 170.502 53.1928H193.027C193.972 53.1928 194.879 52.8172 195.547 52.1486C196.216 51.4801 196.591 50.5734 196.591 49.6279V27.1028C196.591 26.1574 196.216 25.2507 195.547 24.5822C194.879 23.9136 193.972 23.5381 193.027 23.5381ZM181.764 46.2733C180.2 46.2733 178.672 45.8096 177.371 44.9406C176.071 44.0717 175.057 42.8366 174.459 41.3917C173.86 39.9467 173.704 38.3566 174.009 36.8227C174.314 35.2887 175.067 33.8796 176.173 32.7737C177.279 31.6677 178.688 30.9146 180.222 30.6094C181.756 30.3043 183.346 30.4609 184.791 31.0595C186.235 31.658 187.47 32.6716 188.339 33.972C189.208 35.2725 189.672 36.8014 189.672 38.3654C189.672 40.4627 188.839 42.4741 187.356 43.9572C185.873 45.4402 183.862 46.2733 181.764 46.2733ZM190.661 30.4575C190.27 30.4575 189.887 30.3416 189.562 30.1243C189.237 29.9071 188.984 29.5983 188.834 29.2371C188.684 28.8758 188.645 28.4783 188.722 28.0948C188.798 27.7113 188.986 27.3591 189.263 27.0826C189.539 26.8061 189.891 26.6178 190.275 26.5415C190.658 26.4653 191.056 26.5044 191.417 26.654C191.778 26.8037 192.087 27.0571 192.304 27.3822C192.521 27.7073 192.637 28.0895 192.637 28.4805C192.637 29.0049 192.429 29.5077 192.058 29.8785C191.688 30.2492 191.185 30.4575 190.661 30.4575Z" fill="white"/>
<path d="M189.642 197.502C203.557 197.502 214.837 186.221 214.837 172.306C214.837 158.391 203.557 147.11 189.642 147.11C175.727 147.11 164.447 158.391 164.447 172.306C164.447 186.221 175.727 197.502 189.642 197.502Z" fill="#955540"/>
<path d="M183.16 197.502C179.017 197.504 174.963 196.303 171.491 194.043L169.744 192.907L171.815 193.137C172.358 193.197 172.942 193.232 173.552 193.241C176.343 193.243 179.076 192.44 181.423 190.928C180.029 190.626 178.737 189.964 177.677 189.01C176.616 188.056 175.823 186.841 175.376 185.486L175.117 184.686L175.941 184.848C176.316 184.922 176.696 184.965 177.077 184.976C175.771 184.304 174.674 183.285 173.907 182.032C173.141 180.778 172.733 179.338 172.73 177.868V177.022L173.467 177.348C173.904 177.594 174.367 177.79 174.847 177.934C173.711 176.66 173.005 175.059 172.83 173.36C172.656 171.661 173.02 169.951 173.873 168.471L174.233 167.85L174.685 168.407C177.975 172.479 182.69 175.148 187.875 175.874C188.017 175.894 188.162 175.883 188.299 175.842C188.437 175.801 188.564 175.73 188.672 175.636C188.782 175.54 188.871 175.421 188.931 175.289C188.992 175.156 189.023 175.011 189.023 174.865C189.011 173.285 189.469 171.737 190.34 170.419C191.211 169.1 192.455 168.071 193.913 167.462C195.371 166.854 196.977 166.693 198.527 167C200.077 167.308 201.5 168.07 202.615 169.19C204.141 168.857 205.604 168.282 206.948 167.488L208.083 166.816L207.669 168.068C207.286 169.229 206.644 170.288 205.79 171.164C206.547 170.967 207.288 170.71 208.004 170.395L209.542 169.72L208.615 171.12C207.634 172.606 206.408 173.916 204.99 174.992V175.707C204.99 186.42 196.841 197.502 183.204 197.502H183.16Z" fill="white"/>
<path d="M130.773 125.347C144.688 125.347 155.968 114.067 155.968 100.152C155.968 86.2365 144.688 74.9561 130.773 74.9561C116.858 74.9561 105.578 86.2365 105.578 100.152C105.578 114.067 116.858 125.347 130.773 125.347Z" fill="#955540"/>
<path d="M142.036 95.6924H119.512C118.567 95.6924 117.66 96.0679 116.991 96.7364C116.323 97.405 115.947 98.3117 115.947 99.2571V121.782C115.947 122.728 116.323 123.634 116.991 124.303C117.66 124.971 118.567 125.347 119.512 125.347H142.036C142.982 125.347 143.888 124.971 144.557 124.303C145.225 123.634 145.601 122.728 145.601 121.782V99.2571C145.601 98.3117 145.225 97.405 144.557 96.7364C143.888 96.0679 142.982 95.6924 142.036 95.6924ZM137.807 103.297H135.224C133.46 103.297 133.117 104.132 133.117 105.365V107.979H137.323L136.777 112.084H133.109V122.788C131.541 123.082 129.931 123.078 128.364 122.777V112.084H125.001V107.979H128.427V104.944C128.427 101.315 130.948 99.3328 134.194 99.3328C135.754 99.3328 137.425 99.4499 137.807 99.5045L137.807 103.297Z" fill="white"/>
</g>
<defs>
<clipPath id="clip0_243_670">
<rect width="421" height="304" fill="white"/>
</clipPath>
</defs>
</svg>
