<svg width="451" height="357" viewBox="0 0 451 357" fill="none" xmlns="http://www.w3.org/2000/svg">
<g clip-path="url(#clip0_243_728)">
<path d="M451 7.4292H180.533V136.017H451V7.4292Z" fill="#E6E6E6"/>
<path d="M443.267 18.4561H188.268V125.741H443.267V18.4561Z" fill="white"/>
<path d="M450.885 0H180.418V11.5123H450.885V0Z" fill="#955540"/>
<path d="M188.956 8.90328C190.132 8.90328 191.086 7.94796 191.086 6.76951C191.086 5.59106 190.132 4.63574 188.956 4.63574C187.78 4.63574 186.826 5.59106 186.826 6.76951C186.826 7.94796 187.78 8.90328 188.956 8.90328Z" fill="white"/>
<path d="M197.04 8.90328C198.216 8.90328 199.17 7.94796 199.17 6.76951C199.17 5.59106 198.216 4.63574 197.04 4.63574C195.864 4.63574 194.91 5.59106 194.91 6.76951C194.91 7.94796 195.864 8.90328 197.04 8.90328Z" fill="white"/>
<path d="M205.124 8.90328C206.3 8.90328 207.253 7.94796 207.253 6.76951C207.253 5.59106 206.3 4.63574 205.124 4.63574C203.948 4.63574 202.994 5.59106 202.994 6.76951C202.994 7.94796 203.948 8.90328 205.124 8.90328Z" fill="white"/>
<path d="M383.234 35.8164H340.838V108.382H383.234V35.8164Z" fill="#F2F2F2"/>
<path d="M333.813 35.8149H248.299V55.7894H333.813V35.8149Z" fill="#955540"/>
<path d="M333.813 61.3521H248.299V82.8436H333.813V61.3521Z" fill="#F2F2F2"/>
<path d="M333.813 88.4062H248.299V108.381H333.813V88.4062Z" fill="#F2F2F2"/>
<path d="M129.04 214.562C129.048 213.091 128.746 211.635 128.153 210.289C127.561 208.943 126.691 207.738 125.601 206.752C124.511 205.766 123.225 205.023 121.829 204.569C120.432 204.116 118.955 203.964 117.495 204.122C117.033 204.174 116.576 204.259 116.126 204.375L80.8536 174.083L82.9614 162.7L65.5764 157.055L60.3347 175.297C59.7146 177.486 59.8157 179.818 60.6227 181.945C61.4298 184.072 62.9 185.882 64.815 187.106L108.206 214.603C108.206 214.944 108.224 215.286 108.259 215.626C108.417 217.089 108.883 218.502 109.624 219.772C110.365 221.042 111.366 222.14 112.561 222.996C113.755 223.851 115.117 224.444 116.556 224.735C117.996 225.027 119.48 225.01 120.913 224.687C121.329 224.594 121.739 224.476 122.141 224.332C124.149 223.604 125.887 222.278 127.12 220.531C128.353 218.785 129.023 216.702 129.04 214.562Z" fill="#DEB48E"/>
<path d="M41.3484 249.693H86.8256C86.8256 251.003 133.695 252.066 133.695 252.066C134.431 252.621 135.102 253.258 135.694 253.964C137.474 256.092 138.447 258.781 138.441 261.557V263.455C138.44 266.601 137.192 269.618 134.972 271.842C132.752 274.067 129.741 275.317 126.601 275.318H41.3484C38.2089 275.315 35.1988 274.065 32.9789 271.841C30.7589 269.616 29.5105 266.6 29.5078 263.455V261.557C29.5122 258.412 30.761 255.397 32.9807 253.173C35.2003 250.949 38.2094 249.698 41.3484 249.693Z" fill="#333333"/>
<path d="M90.8181 274.847H78.5039V354.569H90.8181V274.847Z" fill="#333333"/>
<path d="M125.866 355.56C125.866 357.053 107.205 356.138 84.1868 356.138C61.1681 356.138 42.5078 357.053 42.5078 355.56C42.5078 354.068 61.1681 342.231 84.1868 342.231C107.205 342.231 125.866 354.068 125.866 355.56Z" fill="#333333"/>
<path d="M114.75 344.792L126.363 344.79L131.888 314.613L114.748 314.614L114.75 344.792Z" fill="#DEB48E"/>
<path d="M111.788 356.07L149.233 356.068V355.594C149.233 353.676 148.856 351.777 148.124 350.006C147.391 348.234 146.318 346.624 144.964 345.268C143.611 343.912 142.004 342.837 140.236 342.103C138.468 341.369 136.573 340.991 134.659 340.991H134.657L111.787 340.992L111.788 356.07Z" fill="#333333"/>
<path d="M132.118 326.078L155.27 274.062C157.203 269.677 157.416 264.725 155.868 260.19C154.32 255.655 151.124 251.871 146.916 249.591L96.6992 222.611L73.7842 220.658L52.6466 218.733L52.4942 218.992C52.2992 219.321 47.7545 227.186 50.8266 235.811C53.1568 242.352 59.2181 247.462 68.8421 250.998C91.3055 259.25 117.255 266.303 127.369 268.952C127.816 269.067 128.234 269.275 128.595 269.563C128.956 269.85 129.252 270.212 129.464 270.622C129.676 271.028 129.802 271.474 129.834 271.931C129.866 272.388 129.803 272.847 129.65 273.279L108.141 321.695C107.916 322.309 107.835 322.967 107.905 323.617C107.974 324.267 108.191 324.893 108.54 325.446C108.888 325.999 109.359 326.464 109.915 326.806C110.472 327.148 111.099 327.357 111.749 327.417L127.821 328.59C127.957 328.603 128.093 328.609 128.228 328.609C129.051 328.609 129.857 328.37 130.547 327.92C131.237 327.471 131.783 326.831 132.118 326.078Z" fill="#CBCBCB"/>
<path d="M107.172 344.792L118.784 344.79L124.309 314.613L107.17 314.614L107.172 344.792Z" fill="#DEB48E"/>
<path d="M104.21 356.07L141.655 356.068V355.594C141.655 353.676 141.278 351.777 140.546 350.006C139.813 348.234 138.74 346.624 137.386 345.268C136.033 343.912 134.426 342.837 132.658 342.103C130.89 341.369 128.995 340.991 127.081 340.991H127.079L104.209 340.992L104.21 356.07Z" fill="#333333"/>
<path d="M123.595 328.925L146.746 276.909C148.679 272.524 148.893 267.572 147.345 263.037C145.797 258.502 142.601 254.717 138.393 252.438L88.1759 225.458L65.2608 223.505L48.7048 222.066L48.7071 221.838C48.5121 222.168 43.9674 230.033 47.0395 238.657C49.3697 245.199 50.6948 250.309 60.3188 253.844C82.7822 262.097 108.732 269.15 118.846 271.799C119.293 271.913 119.711 272.121 120.072 272.409C120.433 272.697 120.729 273.058 120.94 273.469C121.153 273.875 121.279 274.321 121.311 274.778C121.343 275.235 121.28 275.694 121.126 276.125L99.6176 324.542C99.393 325.156 99.3121 325.813 99.3812 326.464C99.4503 327.114 99.6676 327.74 100.016 328.293C100.365 328.846 100.836 329.311 101.392 329.653C101.949 329.994 102.576 330.204 103.226 330.264L119.298 331.437C119.434 331.449 119.57 331.456 119.705 331.456C120.528 331.456 121.334 331.216 122.024 330.767C122.714 330.318 123.26 329.678 123.595 328.925Z" fill="#CBCBCB"/>
<path d="M79.9635 223.015C81.0735 222.229 97.014 230.608 99.8558 223.964C86.5943 190.747 95.7328 176.403 87.6095 157.354C86.1787 154.069 84.0233 151.151 81.3053 148.82C78.5872 146.489 75.3772 144.806 71.9165 143.897L50.8407 142.831L50.7315 142.884C45.9756 145.218 42.0971 149.025 39.6709 153.742C37.2447 158.458 36.4001 163.832 37.2623 169.067C37.3373 189.798 49.7172 205.609 45.3884 220.645C45.2069 221.274 45.1539 221.933 45.2327 222.583C45.3115 223.232 45.5203 223.859 45.8468 224.426C46.1633 224.974 46.5885 225.451 47.0961 225.828C47.6036 226.205 48.1829 226.473 48.7981 226.617L76.6269 222.898C77.277 223.053 77.9526 223.067 78.6086 222.94C79.2647 222.813 79.8861 222.547 80.4316 222.16L79.9635 223.015Z" fill="#333333"/>
<path d="M57.8748 134.944C70.7239 134.944 81.1402 124.508 81.1402 111.634C81.1402 98.76 70.7239 88.3237 57.8748 88.3237C45.0257 88.3237 34.6094 98.76 34.6094 111.634C34.6094 124.508 45.0257 134.944 57.8748 134.944Z" fill="#DEB48E"/>
<path d="M50.4627 133.03C51.6988 133.572 54.2302 123.703 53.0963 121.729C51.41 118.794 51.5097 118.815 50.3902 116.873C49.2707 114.931 49.0203 112.272 50.4699 110.564C51.9196 108.855 55.2743 109.081 55.936 111.224C55.5104 107.155 59.5278 103.883 63.5073 102.964C67.4867 102.045 71.6843 102.616 75.6857 101.797C80.3296 100.848 85.1613 96.948 83.3085 91.8316C82.9905 90.9798 82.5145 90.1959 81.9055 89.5215C79.7648 87.1099 76.7703 86.0802 73.8425 85.0845C67.7516 83.0132 61.4941 80.9159 55.066 81.1446C44.5042 81.5203 34.5205 88.8355 30.9621 98.806C30.5191 100.05 30.1759 101.328 29.9358 102.626C27.7294 114.513 34.6187 126.237 45.8081 130.764L50.4627 133.03Z" fill="#333333"/>
<path d="M172.471 170.514L175.139 186.386C175.169 186.563 175.15 186.745 175.083 186.911L154.152 239.312C154.069 239.519 153.918 239.692 153.723 239.801C153.528 239.91 153.302 239.949 153.082 239.912C152.862 239.874 152.662 239.762 152.515 239.594C152.367 239.426 152.282 239.213 152.272 238.99L151.386 217.933C151.38 217.793 151.404 217.653 151.457 217.524L170.606 170.308C170.686 170.111 170.828 169.946 171.01 169.837C171.193 169.728 171.405 169.682 171.616 169.705C171.827 169.728 172.025 169.82 172.179 169.966C172.333 170.112 172.436 170.304 172.471 170.514Z" fill="#333333"/>
<path d="M170.99 171.732L173.525 185.368L154.951 233.185L152.539 217.803L170.99 171.732Z" fill="#955540"/>
<path d="M89.7216 239.068C90.1786 240.855 150.181 242.79 150.803 242.249C151.361 241.557 151.845 240.807 152.246 240.012C152.875 238.887 153.457 237.759 153.457 237.759L152.471 218.746L93.3646 212.417C93.3646 212.417 90.7497 228.284 89.9288 235.573C89.7433 236.728 89.6739 237.899 89.7216 239.068Z" fill="#333333"/>
<path opacity="0.1" d="M144.739 220.758L144.744 237.138L118.602 235.276L119.758 218.978L144.739 220.758Z" fill="black"/>
<path opacity="0.1" d="M110.672 223.596L110.83 223.576L109.596 230.539L95.0723 229.505L95.5681 222.52L110.672 223.596Z" fill="black"/>
<path opacity="0.1" d="M89.7216 239.068C90.1786 240.856 150.181 242.79 150.803 242.25C151.361 241.557 151.845 240.807 152.246 240.012L89.9288 235.573C89.7433 236.728 89.6739 237.899 89.7216 239.068Z" fill="black"/>
<path d="M65.6294 210.676L116.244 220.14C116.37 220.458 116.513 220.768 116.672 221.071C117.359 222.368 118.312 223.504 119.466 224.408C120.621 225.311 121.953 225.961 123.375 226.316C124.803 226.675 126.291 226.725 127.739 226.462C129.188 226.199 130.564 225.63 131.775 224.791C133.968 223.282 135.503 220.99 136.063 218.384C136.624 215.778 136.169 213.056 134.791 210.775C133.412 208.495 131.216 206.829 128.651 206.119C126.087 205.409 123.348 205.709 120.997 206.957C120.588 207.178 120.194 207.426 119.819 207.701L75.8566 192.654L73.6065 181.298L55.3711 182.507L57.2606 201.543C57.4899 203.765 58.4279 205.853 59.9354 207.498C61.443 209.144 63.4397 210.258 65.6294 210.676Z" fill="#DEB48E"/>
<path d="M54.7534 190.998L81.2506 182.273L75.0697 164.491C74.2489 162.13 72.6215 160.136 70.4751 158.86C68.3287 157.585 65.8014 157.111 63.3399 157.522C60.8499 157.938 58.5904 159.232 56.9694 161.171C55.3484 163.11 54.4727 165.565 54.5006 168.095L54.7534 190.998Z" fill="#333333"/>
<path d="M309.3 338.585C319.96 344.113 324.699 356.148 324.699 356.148C324.699 356.148 312.155 359.221 301.495 353.694C290.835 348.166 286.096 336.131 286.096 336.131C286.096 336.131 298.639 333.057 309.3 338.585Z" fill="#F1F1F1"/>
<path d="M305.889 342.567C312.25 352.765 324.606 356.525 324.606 356.525C324.606 356.525 326.649 343.75 320.288 333.551C313.926 323.353 301.57 319.593 301.57 319.593C301.57 319.593 299.528 332.369 305.889 342.567Z" fill="#F1F1F1"/>
<path d="M344.18 356.768H277.677C277.522 356.768 277.374 356.707 277.265 356.597C277.155 356.487 277.094 356.339 277.094 356.184C277.094 356.029 277.155 355.88 277.265 355.77C277.374 355.661 277.522 355.599 277.677 355.599H344.18C344.334 355.599 344.483 355.661 344.592 355.77C344.701 355.88 344.763 356.029 344.763 356.184C344.763 356.339 344.701 356.487 344.592 356.597C344.483 356.707 344.334 356.768 344.18 356.768Z" fill="#CBCBCB"/>
</g>
<defs>
<clipPath id="clip0_243_728">
<rect width="451" height="357" fill="white"/>
</clipPath>
</defs>
</svg>
