<svg width="442" height="299" viewBox="0 0 442 299" fill="none" xmlns="http://www.w3.org/2000/svg">
<path d="M439.114 246.95H220.442C219.677 246.949 218.943 246.644 218.403 246.102C217.862 245.56 217.558 244.825 217.557 244.058V2.89168C217.558 2.12503 217.862 1.39003 218.403 0.847923C218.943 0.305817 219.677 0.000877077 220.442 0H439.114C439.879 0.000877077 440.612 0.305817 441.153 0.847923C441.694 1.39003 441.998 2.12503 441.999 2.89168V244.058C441.998 244.825 441.694 245.56 441.153 246.102C440.612 246.644 439.879 246.949 439.114 246.95ZM220.442 1.15667C219.983 1.15718 219.543 1.34013 219.218 1.6654C218.894 1.99067 218.711 2.43168 218.711 2.89168V244.058C218.711 244.518 218.894 244.959 219.218 245.284C219.543 245.61 219.983 245.793 220.442 245.793H439.114C439.573 245.793 440.013 245.61 440.338 245.284C440.662 244.959 440.845 244.518 440.845 244.058V2.89168C440.845 2.43168 440.662 1.99067 440.338 1.6654C440.013 1.34013 439.573 1.15718 439.114 1.15667H220.442Z" fill="#505055"/>
<path d="M314.777 91.9556H260.541C259.776 91.9547 259.043 91.6498 258.502 91.1077C257.961 90.5656 257.657 89.8306 257.656 89.0639V34.7003C257.657 33.9336 257.961 33.1986 258.502 32.6565C259.043 32.1144 259.776 31.8095 260.541 31.8086H314.777C315.541 31.8095 316.275 32.1144 316.816 32.6565C317.356 33.1986 317.661 33.9336 317.661 34.7003V89.0639C317.661 89.8306 317.356 90.5656 316.816 91.1077C316.275 91.6498 315.541 91.9547 314.777 91.9556ZM260.541 32.9653C260.082 32.9658 259.642 33.1487 259.318 33.474C258.993 33.7993 258.811 34.2403 258.81 34.7003V89.0639C258.811 89.5239 258.993 89.9649 259.318 90.2902C259.642 90.6155 260.082 90.7984 260.541 90.7989H314.777C315.236 90.7984 315.675 90.6155 316 90.2902C316.324 89.9649 316.507 89.5239 316.508 89.0639V34.7003C316.507 34.2403 316.324 33.7993 316 33.474C315.675 33.1487 315.236 32.9658 314.777 32.9653H260.541Z" fill="#F2F2F2"/>
<path d="M299.199 98.6063H244.964C244.275 98.6055 243.615 98.331 243.129 97.8431C242.642 97.3552 242.368 96.6937 242.367 96.0037V41.6401C242.368 40.9501 242.642 40.2886 243.129 39.8007C243.615 39.3128 244.275 39.0384 244.964 39.0376H299.199C299.887 39.0384 300.547 39.3128 301.034 39.8007C301.521 40.2886 301.795 40.9501 301.795 41.6401V96.0037C301.795 96.6937 301.521 97.3553 301.034 97.8432C300.547 98.3311 299.887 98.6055 299.199 98.6063Z" fill="#955540"/>
<path d="M414.594 125.21H244.964C244.275 125.21 243.615 124.936 243.128 124.448C242.641 123.96 242.367 123.298 242.367 122.607C242.367 121.917 242.641 121.255 243.128 120.767C243.615 120.279 244.275 120.005 244.964 120.005H414.594C415.282 120.005 415.943 120.279 416.43 120.767C416.917 121.255 417.19 121.917 417.19 122.607C417.19 123.298 416.917 123.96 416.43 124.448C415.943 124.936 415.282 125.21 414.594 125.21Z" fill="#CCCCCC"/>
<path d="M373.629 143.138H244.964C244.275 143.138 243.615 142.864 243.128 142.376C242.641 141.888 242.367 141.226 242.367 140.536C242.367 139.845 242.641 139.183 243.128 138.695C243.615 138.207 244.275 137.933 244.964 137.933H373.629C374.317 137.933 374.978 138.207 375.464 138.695C375.951 139.183 376.225 139.845 376.225 140.536C376.225 141.226 375.951 141.888 375.464 142.376C374.978 142.864 374.317 143.138 373.629 143.138Z" fill="#CCCCCC"/>
<path d="M414.017 59.2797H339.01C338.322 59.2797 337.661 59.0055 337.175 58.5175C336.688 58.0294 336.414 57.3675 336.414 56.6772C336.414 55.987 336.688 55.325 337.175 54.837C337.661 54.3489 338.322 54.0747 339.01 54.0747H414.017C414.706 54.0747 415.366 54.3489 415.853 54.837C416.34 55.325 416.613 55.987 416.613 56.6772C416.613 57.3675 416.34 58.0294 415.853 58.5175C415.366 59.0055 414.706 59.2797 414.017 59.2797Z" fill="#CCCCCC"/>
<path d="M395.298 77.208H339.01C338.322 77.208 337.661 76.9338 337.175 76.4457C336.688 75.9576 336.414 75.2957 336.414 74.6054C336.414 73.9152 336.688 73.2533 337.175 72.7652C337.661 72.2771 338.322 72.0029 339.01 72.0029H395.298C395.986 72.0029 396.647 72.2771 397.134 72.7652C397.621 73.2533 397.894 73.9152 397.894 74.6054C397.894 75.2957 397.621 75.9576 397.134 76.4457C396.647 76.9338 395.986 77.208 395.298 77.208Z" fill="#CCCCCC"/>
<path d="M414.594 161.067H244.964C244.275 161.067 243.615 160.793 243.128 160.305C242.641 159.817 242.367 159.155 242.367 158.464C242.367 157.774 242.641 157.112 243.128 156.624C243.615 156.136 244.275 155.862 244.964 155.862H414.594C415.282 155.862 415.943 156.136 416.43 156.624C416.917 157.112 417.19 157.774 417.19 158.464C417.19 159.155 416.917 159.817 416.43 160.305C415.943 160.793 415.282 161.067 414.594 161.067Z" fill="#CCCCCC"/>
<path d="M373.629 178.995H244.964C244.275 178.995 243.615 178.721 243.128 178.233C242.641 177.745 242.367 177.083 242.367 176.393C242.367 175.702 242.641 175.04 243.128 174.552C243.615 174.064 244.275 173.79 244.964 173.79H373.629C374.317 173.79 374.978 174.064 375.464 174.552C375.951 175.04 376.225 175.702 376.225 176.393C376.225 177.083 375.951 177.745 375.464 178.233C374.978 178.721 374.317 178.995 373.629 178.995Z" fill="#CCCCCC"/>
<path d="M414.594 196.924H244.964C244.275 196.924 243.615 196.65 243.128 196.162C242.641 195.673 242.367 195.011 242.367 194.321C242.367 193.631 242.641 192.969 243.128 192.481C243.615 191.993 244.275 191.719 244.964 191.719H414.594C415.282 191.719 415.943 191.993 416.43 192.481C416.917 192.969 417.19 193.631 417.19 194.321C417.19 195.011 416.917 195.673 416.43 196.162C415.943 196.65 415.282 196.924 414.594 196.924Z" fill="#CCCCCC"/>
<path d="M414.594 214.852H244.964C244.275 214.852 243.615 214.578 243.128 214.09C242.641 213.602 242.367 212.94 242.367 212.249C242.367 211.559 242.641 210.897 243.128 210.409C243.615 209.921 244.275 209.647 244.964 209.647H414.594C415.282 209.647 415.943 209.921 416.43 210.409C416.917 210.897 417.19 211.559 417.19 212.249C417.19 212.94 416.917 213.602 416.43 214.09C415.943 214.578 415.282 214.852 414.594 214.852Z" fill="#CCCCCC"/>
<path d="M277.811 224.574H153.762C152.997 224.573 152.264 224.268 151.723 223.726C151.182 223.184 150.878 222.449 150.877 221.682V144.764C150.878 143.997 151.182 143.262 151.723 142.72C152.264 142.178 152.997 141.873 153.762 141.872H277.811C278.576 141.873 279.309 142.178 279.85 142.72C280.391 143.262 280.695 143.997 280.696 144.764V221.682C280.695 222.449 280.391 223.184 279.85 223.726C279.309 224.268 278.576 224.573 277.811 224.574Z" fill="white"/>
<path d="M277.811 224.574H153.762C152.997 224.573 152.264 224.268 151.723 223.726C151.182 223.184 150.878 222.449 150.877 221.682V144.764C150.878 143.997 151.182 143.262 151.723 142.72C152.264 142.178 152.997 141.873 153.762 141.872H277.811C278.576 141.873 279.309 142.178 279.85 142.72C280.391 143.262 280.695 143.997 280.696 144.764V221.682C280.695 222.449 280.391 223.184 279.85 223.726C279.309 224.268 278.576 224.573 277.811 224.574ZM153.762 143.029C153.303 143.029 152.863 143.212 152.538 143.537C152.214 143.863 152.031 144.304 152.031 144.764V221.682C152.031 222.142 152.214 222.584 152.538 222.909C152.863 223.234 153.303 223.417 153.762 223.418H277.811C278.27 223.417 278.71 223.234 279.034 222.909C279.359 222.584 279.541 222.142 279.542 221.682V144.764C279.541 144.304 279.359 143.863 279.034 143.537C278.71 143.212 278.27 143.029 277.811 143.029H153.762Z" fill="#505055"/>
<path d="M253.288 176.862H178.282C177.593 176.862 176.933 176.588 176.446 176.1C175.959 175.611 175.686 174.949 175.686 174.259C175.686 173.569 175.959 172.907 176.446 172.419C176.933 171.931 177.593 171.657 178.282 171.657H253.288C253.977 171.657 254.637 171.931 255.124 172.419C255.611 172.907 255.885 173.569 255.885 174.259C255.885 174.949 255.611 175.611 255.124 176.1C254.637 176.588 253.977 176.862 253.288 176.862Z" fill="#CCCCCC"/>
<path d="M253.288 194.79H178.282C177.593 194.79 176.933 194.516 176.446 194.028C175.959 193.54 175.686 192.878 175.686 192.187C175.686 191.497 175.959 190.835 176.446 190.347C176.933 189.859 177.593 189.585 178.282 189.585H253.288C253.977 189.585 254.637 189.859 255.124 190.347C255.611 190.835 255.885 191.497 255.885 192.187C255.885 192.878 255.611 193.54 255.124 194.028C254.637 194.516 253.977 194.79 253.288 194.79Z" fill="#CCCCCC"/>
<path d="M132.898 291.997H139.971L143.336 264.648L132.896 264.649L132.898 291.997Z" fill="#DEB48E"/>
<path d="M131.094 289.682L145.024 289.682H145.025C147.379 289.682 149.637 290.619 151.302 292.288C152.967 293.957 153.902 296.22 153.902 298.58V298.869L131.094 298.87L131.094 289.682Z" fill="#2E2D30"/>
<path d="M77.8203 288.928L84.8144 289.987L92.2204 263.451L83.0517 261.887L77.8203 288.928Z" fill="#DEB48E"/>
<path d="M76.3815 286.369L90.1555 288.455L90.1561 288.456C92.4841 288.808 94.5768 290.074 95.9741 291.973C97.3713 293.873 97.9587 296.251 97.6069 298.584L97.5637 298.87L75.0117 295.453L76.3815 286.369Z" fill="#2E2D30"/>
<path d="M99.6298 156.465L107.484 158.528L106.961 171.291L106.896 194.53C107.67 195.066 108.263 195.825 108.597 196.707C108.931 197.589 108.99 198.551 108.767 199.467C108.543 200.383 108.047 201.209 107.345 201.837C106.642 202.464 105.766 202.863 104.833 202.981C103.899 203.098 102.952 202.929 102.117 202.495C101.281 202.062 100.597 201.384 100.154 200.552C99.7114 199.72 99.531 198.773 99.637 197.835C99.7429 196.898 100.13 196.016 100.747 195.304L98.334 171.98L99.6298 156.465Z" fill="#DEB48E"/>
<path d="M98.2622 141.845C98.3055 140.612 98.7023 139.417 99.4051 138.404C100.108 137.39 101.087 136.601 102.225 136.13C103.291 135.652 104.473 135.497 105.625 135.683C106.778 135.868 107.851 136.388 108.714 137.176C109.334 137.732 109.825 138.416 110.154 139.181C110.483 139.946 110.642 140.774 110.619 141.607C110.639 149.084 108.955 159.982 108.938 160.091L108.912 160.265L97.4316 164.14L98.2622 141.845Z" fill="#955540"/>
<path d="M118.789 163.071L136.347 158.515L144.464 185.915L144.752 287.991L131.325 287.907L125.712 205.289L89.94 281.63L75.5156 279.895L106.961 198.06C106.961 198.06 105.23 183.601 110.711 176.372L109.557 168.854L118.789 163.071Z" fill="#2E2D30"/>
<path d="M106.949 169.887C106.703 169.588 106.525 169.24 106.426 168.866C106.327 168.491 106.309 168.1 106.375 167.718L98.3656 143.634C97.9917 142.508 97.952 141.297 98.2513 140.149C98.5506 139.001 99.1761 137.965 100.052 137.166L103.529 133.998L105.885 124.551L119.427 127.869L118.311 132.343L124.44 131.226L137.35 160.046L110.366 170.857L109.037 170.878C108.637 170.879 108.243 170.79 107.881 170.619C107.52 170.448 107.202 170.198 106.949 169.887Z" fill="#955540"/>
<path d="M125.746 149.552L133.484 147.087L139.849 158.154L152.186 177.829C153.126 177.868 154.033 178.192 154.785 178.758C155.537 179.324 156.101 180.106 156.4 181C156.699 181.894 156.721 182.858 156.462 183.765C156.203 184.671 155.675 185.478 154.949 186.077C154.223 186.677 153.332 187.041 152.395 187.122C151.457 187.203 150.518 186.997 149.7 186.531C148.882 186.065 148.224 185.361 147.814 184.513C147.404 183.664 147.26 182.711 147.403 181.778L132.925 163.36L125.746 149.552Z" fill="#DEB48E"/>
<path d="M116.793 137.929C116.172 136.863 115.87 135.641 115.924 134.408C115.978 133.175 116.384 131.983 117.095 130.976C117.741 130.001 118.657 129.237 119.73 128.776C120.803 128.316 121.987 128.179 123.137 128.383C123.957 128.52 124.737 128.835 125.423 129.305C126.109 129.776 126.684 130.39 127.109 131.107C131.114 137.415 135.503 147.528 135.546 147.629L135.616 147.79L127.98 157.216L116.793 137.929Z" fill="#955540"/>
<path d="M115.904 122.793C121.847 122.793 126.664 117.965 126.664 112.008C126.664 106.051 121.847 101.223 115.904 101.223C109.962 101.223 105.145 106.051 105.145 112.008C105.145 117.965 109.962 122.793 115.904 122.793Z" fill="#DEB48E"/>
<path d="M96.8899 107.459C102.614 107.459 107.254 102.807 107.254 97.0697C107.254 91.332 102.614 86.6807 96.8899 86.6807C91.1658 86.6807 86.5254 91.332 86.5254 97.0697C86.5254 102.807 91.1658 107.459 96.8899 107.459Z" fill="#2E2D30"/>
<path d="M87.9503 105.673C89.2918 106.644 90.846 107.28 92.4828 107.527C94.1197 107.773 95.7916 107.623 97.3587 107.089C98.9258 106.555 100.342 105.652 101.49 104.457C102.638 103.261 103.483 101.808 103.956 100.217C103.777 101.642 103.306 103.015 102.571 104.248C101.836 105.481 100.855 106.548 99.6879 107.382C98.5212 108.215 97.1946 108.797 95.7921 109.091C94.3896 109.385 92.9415 109.384 91.5394 109.089C90.1372 108.793 88.8114 108.209 87.6456 107.375C86.4798 106.54 85.4994 105.471 84.7663 104.237C84.0331 103.003 83.5632 101.63 83.3861 100.205C83.209 98.7801 83.3287 97.3335 83.7374 95.957C83.5053 97.8064 83.7739 99.6843 84.5151 101.394C85.2564 103.103 86.4429 104.581 87.9503 105.673Z" fill="#2E2D30"/>
<path d="M128.854 105.684C127.044 102.437 126.352 101.081 124.019 99.1063C121.956 97.3602 119.418 96.8474 117.371 98.5019C114.95 97.4533 112.256 97.2155 109.689 97.8239C107.122 98.4323 104.819 99.8545 103.123 101.879C101.427 103.904 100.427 106.423 100.273 109.062C100.119 111.702 100.818 114.321 102.267 116.53C103.716 118.739 105.837 120.421 108.315 121.326C110.794 122.231 113.497 122.31 116.024 121.552C118.551 120.794 120.767 119.239 122.342 117.118C123.917 114.997 124.768 112.424 124.767 109.78C124.766 109.316 124.738 108.852 124.684 108.391C126.463 108.14 127.074 105.935 128.854 105.684Z" fill="#2E2D30"/>
</svg>
